<?xml version="1.0" encoding="UTF-8"?>
<svg version="1.1" xmlns="http://www.w3.org/2000/svg" width="500" height="500">
<path d="M0 0 C165 0 330 0 500 0 C500 165 500 330 500 500 C335 500 170 500 0 500 C0 335 0 170 0 0 Z " fill="#F4F4F4" transform="translate(0,0)"/>
<path d="M0 0 C165 0 330 0 500 0 C500 165 500 330 500 500 C335 500 170 500 0 500 C0 335 0 170 0 0 Z M212 53 C210.63151981 53.25786238 209.26303037 53.51567562 207.89453125 53.7734375 C156.77981727 64.03436103 111.79607136 96.54903046 82.875 139.375 C67.19312037 163.21971228 56.47105928 189.72277075 52 218 C51.8455542 218.97525635 51.8455542 218.97525635 51.68798828 219.97021484 C47.55816724 247.24791117 48.41121507 277.67593189 57 304 C57.46508679 305.56204078 57.92851081 307.12457722 58.390625 308.6875 C61.49852285 318.87688152 65.40550829 328.51351813 70 338.125 C70.72896484 339.65229736 70.72896484 339.65229736 71.47265625 341.21044922 C76.30926309 351.06584176 82.14082742 360.18175855 88.75 368.9375 C89.26385254 369.6186084 89.77770508 370.2997168 90.30712891 371.00146484 C94.73987233 376.79708305 99.44149959 382.22377536 104.52099609 387.46972656 C105.54872275 388.53307926 106.56940323 389.60326912 107.58447266 390.67871094 C137.49027918 422.341605 180.62590298 444.02643687 224 449 C224.86367187 449.11085938 225.72734375 449.22171875 226.6171875 449.3359375 C278.29688944 454.87839829 332.56937339 440.70126149 373.23608398 407.97802734 C378.30706847 403.81064322 383.23850435 399.51950633 388 395 C388.52029785 394.51225098 389.0405957 394.02450195 389.57666016 393.52197266 C409.58860323 374.65290952 424.06517849 352.13957523 435 327 C435.48726563 325.8867334 435.48726563 325.8867334 435.984375 324.75097656 C454.7659939 281.16453517 454.66967828 230.66476758 440 186 C439.77086914 185.29617187 439.54173828 184.59234375 439.30566406 183.8671875 C431.6128446 160.73290315 419.06566105 139.30265183 403 121 C402.21496094 120.10539062 401.42992187 119.21078125 400.62109375 118.2890625 C396.86379121 114.06751336 393.05022388 109.94363904 389 106 C388.32517578 105.27490234 388.32517578 105.27490234 387.63671875 104.53515625 C377.63258111 93.98488702 365.22828525 85.739715 353 78 C351.95070313 77.32324219 350.90140625 76.64648438 349.8203125 75.94921875 C333.42046141 65.94490861 314.6333004 59.41830135 296 55 C294.80632812 54.70609375 293.61265625 54.4121875 292.3828125 54.109375 C288.93275178 53.31140177 285.48538346 52.62518089 282 52 C280.85015625 51.79375 279.7003125 51.5875 278.515625 51.375 C256.88001859 48.19589049 233.3835019 48.53180557 212 53 Z " fill="#FDFDFD" transform="translate(0,0)"/>
<path d="M0 0 C1.31637451 0.00563965 2.63274902 0.0112793 3.98901367 0.01708984 C38.14277655 0.44115156 68.80539808 14.37586815 93.375 38.0625 C109.34511128 54.46286784 119.97696003 74.37618302 126.3125 96.3125 C126.63605469 97.43140625 126.95960938 98.5503125 127.29296875 99.703125 C132.30261965 121.05881992 130.85332864 145.53215195 124.3125 166.3125 C123.98354736 167.39241211 123.98354736 167.39241211 123.64794922 168.49414062 C113.71277458 200.25693116 90.53102087 226.67849173 61.37890625 242.2734375 C55.21143049 245.44375981 48.82085948 247.94093976 42.3125 250.3125 C41.136875 250.77076172 41.136875 250.77076172 39.9375 251.23828125 C37.74801091 252.04689938 35.56498587 252.70017374 33.3125 253.3125 C31.83910156 253.73015625 31.83910156 253.73015625 30.3359375 254.15625 C11.72720005 258.53477646 -12.34438908 258.75538719 -30.6875 253.3125 C-31.44853027 253.08675293 -32.20956055 252.86100586 -32.99365234 252.62841797 C-67.46491772 242.1306892 -95.2080053 219.97925169 -112.8125 188.3125 C-115.98268574 182.36005811 -118.33936033 176.1938435 -120.5 169.8125 C-120.91693115 168.58660156 -120.91693115 168.58660156 -121.34228516 167.3359375 C-125.51092559 154.38600398 -127.22418272 141.94702845 -127.0625 128.375 C-127.05784729 127.67461609 -127.05319458 126.97423218 -127.04840088 126.25262451 C-126.96865896 116.00272109 -126.55682812 106.23559307 -123.6875 96.3125 C-123.39746094 95.26811768 -123.39746094 95.26811768 -123.1015625 94.20263672 C-113.48992188 60.21332424 -90.70840265 32.58980477 -60.14404297 15.23144531 C-41.05594748 4.6869571 -21.73108097 -0.09794448 0 0 Z " fill="#F4C425" transform="translate(248.6875,121.6875)"/>
<path d="M0 0 C0.71061584 0.00182281 1.42123169 0.00364563 2.15338135 0.00552368 C21.71395631 0.08932118 40.22216162 2.6060144 58.9375 8.3125 C59.68837891 8.53808594 60.43925781 8.76367188 61.21289062 8.99609375 C110.47201777 23.98984354 153.46073354 58.82567645 177.9375 104.3125 C193.29814081 133.41070737 202.39055231 164.70798601 202.25 197.75 C202.24726578 198.78273544 202.24726578 198.78273544 202.24447632 199.83633423 C202.18715799 212.81809602 201.2249853 225.52275251 198.9375 238.3125 C198.70401855 239.62637695 198.70401855 239.62637695 198.46582031 240.96679688 C189.11171361 290.89270772 157.16786209 336.41011899 115.9375 365.3125 C115.34549805 365.73321777 114.75349609 366.15393555 114.14355469 366.58740234 C104.98823474 373.02742655 95.18786695 377.76663427 85.01416016 382.36376953 C83.31307146 383.14091868 81.62851381 383.9541599 79.94921875 384.77734375 C59.43002131 394.76569336 34.67639124 399.97527068 11.9375 400.3125 C11.0815625 400.33151367 10.225625 400.35052734 9.34375 400.37011719 C-38.1337106 401.3432775 -81.96560978 387.91562893 -120.0625 359.3125 C-121.0009375 358.62027344 -121.939375 357.92804688 -122.90625 357.21484375 C-136.99221863 346.28082798 -149.81566809 332.8875615 -160.0625 318.3125 C-160.66707031 317.50296875 -161.27164063 316.6934375 -161.89453125 315.859375 C-174.92113217 298.09850151 -183.88411126 277.63445089 -190.328125 256.69140625 C-190.95766683 254.65209256 -191.61656796 252.62188239 -192.28125 250.59375 C-200.10117684 224.76429467 -200.2625295 194.83381303 -196.0625 168.3125 C-195.86785156 167.08144531 -195.67320312 165.85039062 -195.47265625 164.58203125 C-188.23858804 124.64483813 -168.95803292 89.39841458 -141.0625 60.3125 C-140.16660156 59.36375 -139.27070313 58.415 -138.34765625 57.4375 C-131.45073983 50.30764808 -124.0431754 44.16846421 -116.0625 38.3125 C-115.50675293 37.90177246 -114.95100586 37.49104492 -114.37841797 37.06787109 C-81.22575222 12.90641848 -40.93177933 -0.22063531 0 0 Z M-135.0625 57.3125 C-135.63145996 57.85422852 -136.20041992 58.39595703 -136.78662109 58.95410156 C-145.05818685 66.86642696 -152.36997442 75.03010015 -159.0625 84.3125 C-159.66191406 85.10527344 -160.26132813 85.89804688 -160.87890625 86.71484375 C-190.42444357 126.8172552 -201.47988283 180.0733187 -194.53662109 228.94677734 C-190.30951749 255.46896508 -181.26245017 281.47583516 -167.0625 304.3125 C-166.52496094 305.18116699 -166.52496094 305.18116699 -165.9765625 306.06738281 C-157.33705581 319.86298607 -146.5681368 331.8634483 -135.0625 343.3125 C-134.48628906 343.92351562 -133.91007812 344.53453125 -133.31640625 345.1640625 C-122.20345264 356.81598153 -108.91780552 365.31640328 -95.0625 373.3125 C-94.42731445 373.68503906 -93.79212891 374.05757813 -93.13769531 374.44140625 C-71.34827815 387.13336122 -47.11199978 393.84135979 -22.24511719 397.0300293 C-20.23455414 397.29023304 -18.22828463 397.58306076 -16.22265625 397.87890625 C-0.70642329 399.78356473 15.52441888 398.60535504 30.9375 396.3125 C31.61087402 396.22129883 32.28424805 396.13009766 32.97802734 396.03613281 C65.40381706 391.59850973 97.49884006 377.89167642 122.9375 357.3125 C123.87980469 356.56097656 124.82210938 355.80945313 125.79296875 355.03515625 C134.52145885 347.99216769 142.72235232 340.91237299 149.9375 332.3125 C150.77152344 331.36632812 151.60554688 330.42015625 152.46484375 329.4453125 C159.39927007 321.53717869 165.4296641 313.27142078 170.9375 304.3125 C171.35386719 303.63622559 171.77023437 302.95995117 172.19921875 302.26318359 C186.48394019 278.68789909 195.51151226 251.64182422 198.9375 224.3125 C199.0317627 223.56105713 199.12602539 222.80961426 199.22314453 222.03540039 C204.72853258 173.26002599 191.48167925 124.0436683 162.9375 84.3125 C162.17824219 83.23484375 161.41898437 82.1571875 160.63671875 81.046875 C148.15665589 63.95937669 131.674767 47.85751587 113.9375 36.3125 C113.16728516 35.81073242 112.39707031 35.30896484 111.60351562 34.79199219 C88.68929746 20.08219075 63.73586744 10.22837887 36.9375 5.3125 C36.15536133 5.16296875 35.37322266 5.0134375 34.56738281 4.859375 C-26.97344347 -6.59467369 -90.34173556 14.3662599 -135.0625 57.3125 Z " fill="#1E1E1E" transform="translate(248.0625,49.6875)"/>
<path d="M0 0 C1.31637451 0.00563965 2.63274902 0.0112793 3.98901367 0.01708984 C38.14277655 0.44115156 68.80539808 14.37586815 93.375 38.0625 C109.34511128 54.46286784 119.97696003 74.37618302 126.3125 96.3125 C126.63605469 97.43140625 126.95960938 98.5503125 127.29296875 99.703125 C132.30261965 121.05881992 130.85332864 145.53215195 124.3125 166.3125 C123.98354736 167.39241211 123.98354736 167.39241211 123.64794922 168.49414062 C113.71277458 200.25693116 90.53102087 226.67849173 61.37890625 242.2734375 C55.21143049 245.44375981 48.82085948 247.94093976 42.3125 250.3125 C41.136875 250.77076172 41.136875 250.77076172 39.9375 251.23828125 C37.74801091 252.04689938 35.56498587 252.70017374 33.3125 253.3125 C31.83910156 253.73015625 31.83910156 253.73015625 30.3359375 254.15625 C11.72720005 258.53477646 -12.34438908 258.75538719 -30.6875 253.3125 C-31.44853027 253.08675293 -32.20956055 252.86100586 -32.99365234 252.62841797 C-67.46491772 242.1306892 -95.2080053 219.97925169 -112.8125 188.3125 C-115.98268574 182.36005811 -118.33936033 176.1938435 -120.5 169.8125 C-120.91693115 168.58660156 -120.91693115 168.58660156 -121.34228516 167.3359375 C-125.51092559 154.38600398 -127.22418272 141.94702845 -127.0625 128.375 C-127.05784729 127.67461609 -127.05319458 126.97423218 -127.04840088 126.25262451 C-126.96865896 116.00272109 -126.55682812 106.23559307 -123.6875 96.3125 C-123.39746094 95.26811768 -123.39746094 95.26811768 -123.1015625 94.20263672 C-113.48992188 60.21332424 -90.70840265 32.58980477 -60.14404297 15.23144531 C-41.05594748 4.6869571 -21.73108097 -0.09794448 0 0 Z M-96.1796875 47.25 C-118.73626836 74.79573114 -126.48873558 107.21540027 -124.6875 142.3125 C-121.31560315 175.77377884 -103.39476725 206.08122843 -77.6875 227.3125 C-49.54711537 248.73606896 -16.23143528 258.13909704 18.89770508 253.48803711 C52.9220336 248.23695496 83.16624853 230.82307611 103.79296875 202.93359375 C124.4191375 173.99337008 131.09293201 140.30998351 125.75 105.4375 C122.1595928 84.16683406 112.73656569 63.47543527 98.3125 47.3125 C97.63960937 46.50941406 96.96671875 45.70632812 96.2734375 44.87890625 C79.11884394 24.88600721 53.52505368 8.68713884 27.3125 4.3125 C26.17941406 4.11140625 25.04632813 3.9103125 23.87890625 3.703125 C-22.2821957 -3.28954961 -65.26654756 12.36369787 -96.1796875 47.25 Z " fill="#2F1D0E" transform="translate(248.6875,121.6875)"/>
<path d="M0 0 C5.21827562 5.08781873 6.76038642 8.71980843 7.125 15.9375 C6.93736688 21.20333284 6.2640857 24.48891347 2.3828125 28.14453125 C-4.54104915 32.89929931 -13.38368734 33.37121472 -21.5 34.4375 C-24.65751431 23.62133397 -26.03862819 12.58339692 -27.5 1.4375 C-18.55497665 -1.22697504 -8.8911145 -3.96924754 0 0 Z " fill="#090909" transform="translate(228.5,74.5625)"/>
<path d="M0 0 C4.25798662 0.48432075 6.67599417 3.16093935 9.625 6 C10.68445419 6.99656347 11.74435794 7.99264921 12.8046875 8.98828125 C13.33545898 9.49053223 13.86623047 9.9927832 14.41308594 10.51025391 C16.82497274 12.77445902 19.28618457 14.9798933 21.75 17.1875 C22.56984375 17.92355469 23.3896875 18.65960938 24.234375 19.41796875 C24.81703125 19.94003906 25.3996875 20.46210938 26 21 C24.95125002 23.62187494 24.35068687 24.79371361 21.875 26.25 C21.25625 26.4975 20.6375 26.745 20 27 C19.443125 26.43152344 18.88625 25.86304688 18.3125 25.27734375 C13.38488906 20.29146714 8.34810981 15.53204946 3 11 C4.29475056 13.63690116 5.66022115 16.20616251 7.12890625 18.75 C7.52400391 19.4409375 7.91910156 20.131875 8.32617188 20.84375 C9.15135881 22.28293859 9.97949415 23.7204406 10.81054688 25.15625 C11.20435547 25.8471875 11.59816406 26.538125 12.00390625 27.25 C12.36299072 27.87390625 12.7220752 28.4978125 13.09204102 29.140625 C14.06834749 31.13996624 14.72363405 32.78684588 15 35 C12.875 37.8125 12.875 37.8125 10 40 C6.4477956 39.6519297 3.5485119 38.47581187 0.35546875 36.93359375 C-0.48564453 36.53076172 -1.32675781 36.12792969 -2.19335938 35.71289062 C-3.05767578 35.29201172 -3.92199219 34.87113281 -4.8125 34.4375 C-5.69615234 34.01275391 -6.57980469 33.58800781 -7.49023438 33.15039062 C-9.66264337 32.10528576 -11.83239957 31.05503238 -14 30 C-10.33090512 33.72355269 -6.55325121 37.2943376 -2.6875 40.8125 C-2.13771484 41.31458984 -1.58792969 41.81667969 -1.02148438 42.33398438 C0.31805239 43.55703968 1.65888992 44.77867008 3 46 C1.60840337 49.47899158 0.36748512 50.48052501 -3 52 C-3.48355957 51.54149658 -3.96711914 51.08299316 -4.46533203 50.6105957 C-6.68347518 48.50937834 -8.90421391 46.4109237 -11.125 44.3125 C-11.88554688 43.59126953 -12.64609375 42.87003906 -13.4296875 42.12695312 C-17.51448803 38.27104228 -21.63449278 34.53564243 -26 31 C-24.29919134 26.97990681 -22.10902627 24.03836659 -19 21 C-13.4438565 21.16785932 -8.58662688 23.77160529 -3.625 26.0625 C-2.79355469 26.43955078 -1.96210937 26.81660156 -1.10546875 27.20507812 C0.93265588 28.13043356 2.9675867 29.0621837 5 30 C4.43901611 29.12263184 4.43901611 29.12263184 3.86669922 28.22753906 C2.18601456 25.57858249 0.53041493 22.91481428 -1.125 20.25 C-1.71410156 19.32960937 -2.30320312 18.40921875 -2.91015625 17.4609375 C-3.45800781 16.57148438 -4.00585938 15.68203125 -4.5703125 14.765625 C-5.08352051 13.94868164 -5.59672852 13.13173828 -6.12548828 12.29003906 C-7 10 -7 10 -6.23242188 7.80859375 C-4.33280783 5.02088755 -2.20546887 2.5537008 0 0 Z " fill="#0A0A0A" transform="translate(126,116)"/>
<path d="M0 0 C1.85615587 4.09128955 3.70743902 8.18473722 5.55419922 12.28027344 C6.1833904 13.6737841 6.8139191 15.06669164 7.44580078 16.45898438 C8.35279374 18.4580709 9.25498538 20.45926313 10.15625 22.4609375 C10.44060913 23.08495453 10.72496826 23.70897156 11.01794434 24.35189819 C13 28.77225659 13 28.77225659 13 31 C11.4274835 31.89429374 9.84146259 32.76487427 8.25 33.625 C7.36828125 34.11226562 6.4865625 34.59953125 5.578125 35.1015625 C3 36 3 36 1.00390625 35.4453125 C-1.62035956 33.55256718 -3.9469079 31.45833208 -6.3125 29.25 C-10.45846186 25.39384147 -14.67979368 21.66025182 -19 18 C-18.72736328 18.62567871 -18.45472656 19.25135742 -18.17382812 19.89599609 C-16.94546157 22.72071423 -15.72266758 25.54781071 -14.5 28.375 C-13.85611328 29.85226563 -13.85611328 29.85226563 -13.19921875 31.359375 C-12.79316406 32.30039063 -12.38710937 33.24140625 -11.96875 34.2109375 C-11.59169922 35.08024902 -11.21464844 35.94956055 -10.82617188 36.84521484 C-10 39 -10 39 -10 41 C-12.0862455 42.26664905 -13.48231998 43.01510197 -15.94995117 42.94311523 C-19.18210823 41.45617672 -19.69254048 39.06156909 -21.05078125 35.84765625 C-21.31384567 35.23232529 -21.5769101 34.61699432 -21.84794617 33.98301697 C-22.40035514 32.6822135 -22.94542266 31.37827138 -23.48364258 30.0715332 C-24.31083472 28.06653641 -25.16207565 26.07313576 -26.01757812 24.08007812 C-28.9976782 17.01543497 -28.9976782 17.01543497 -30 14 C-28.67881495 11.3576299 -27.34190808 10.98380016 -24.6875 9.75 C-23.90761719 9.37359375 -23.12773437 8.9971875 -22.32421875 8.609375 C-20 8 -20 8 -18.00390625 8.62890625 C-15.55323824 10.3056791 -13.43028998 12.17038459 -11.25 14.1875 C-6.88607662 18.18884221 -2.46951519 22.11726474 2 26 C-0.94131136 18.30919407 -3.91518675 10.63448196 -7 3 C-2.25 0 -2.25 0 0 0 Z " fill="#0B0B0B" transform="translate(191,79)"/>
<path d="M0 0 C2.84460143 1.42230071 5.40337141 3.17055713 8 5 C7.37460665 12.358023 5.8753344 19.28615086 4.0625 26.4375 C3.79759766 27.52482422 3.53269531 28.61214844 3.25976562 29.73242188 C2.87014648 31.28606445 2.87014648 31.28606445 2.47265625 32.87109375 C2.23812744 33.80880615 2.00359863 34.74651855 1.76196289 35.71264648 C1 38 1 38 -1 40 C-2.65 39.01 -4.3 38.02 -6 37 C-5.67 34.03 -5.34 31.06 -5 28 C-5.70125 27.7525 -6.4025 27.505 -7.125 27.25 C-10 26 -10 26 -13 23.75 C-14.485 22.88375 -14.485 22.88375 -16 22 C-18.65245602 22.66096786 -18.65245602 22.66096786 -21 24 C-25 24 -25 24 -28 22 C-26.58345199 18.63546941 -24.96287798 16.89620078 -22.078125 14.6875 C-21.29953125 14.08679688 -20.5209375 13.48609375 -19.71875 12.8671875 C-18.49671875 11.94292969 -18.49671875 11.94292969 -17.25 11 C-16.45078125 10.38382813 -15.6515625 9.76765625 -14.828125 9.1328125 C-2.91235247 0 -2.91235247 0 0 0 Z " fill="#090909" transform="translate(347,98)"/>
<path d="M0 0 C2.56695636 0.39491636 4.67123994 0.83561997 7 2 C6.52140759 3.60433809 6.04210442 5.20846416 5.5625 6.8125 C5.29566406 7.70582031 5.02882813 8.59914063 4.75390625 9.51953125 C4.19612127 11.35473055 3.60655425 13.18033726 3 15 C4.5811292 15.50692692 6.16501383 16.00526443 7.75 16.5 C8.63171875 16.7784375 9.5134375 17.056875 10.421875 17.34375 C13.20267529 18.16445285 13.20267529 18.16445285 17 18 C18.32 14.7 19.64 11.4 21 8 C26.75 8.75 26.75 8.75 29 11 C23.555 25.85 23.555 25.85 18 41 C14.535 40.505 14.535 40.505 11 40 C9.71502463 36.14507389 10.5947791 34.59653164 11.9375 30.8125 C12.31777344 29.72582031 12.69804687 28.63914062 13.08984375 27.51953125 C13.39019531 26.68808594 13.69054687 25.85664062 14 25 C13.27425781 24.86722656 12.54851562 24.73445313 11.80078125 24.59765625 C9.17416895 24.03716576 6.72536051 23.30870585 4.1875 22.4375 C3.39730469 22.16808594 2.60710937 21.89867188 1.79296875 21.62109375 C1.20128906 21.41613281 0.60960937 21.21117188 0 21 C-0.20496094 21.69867188 -0.40992188 22.39734375 -0.62109375 23.1171875 C-0.89050781 24.02726562 -1.15992188 24.93734375 -1.4375 25.875 C-1.70433594 26.77992187 -1.97117187 27.68484375 -2.24609375 28.6171875 C-3 31 -3 31 -4 33 C-8.75 32.125 -8.75 32.125 -11 31 C-9.63287812 24.01407875 -7.52641226 17.62279881 -4.9375 11 C-4.57333984 10.04738281 -4.20917969 9.09476563 -3.83398438 8.11328125 C-1.14513465 1.14513465 -1.14513465 1.14513465 0 0 Z " fill="#0C0C0C" transform="translate(299,77)"/>
<path d="M0 0 C4.68941954 1.76371974 7.2147645 4.42103989 9.828125 8.5390625 C10.140625 12.4140625 10.140625 12.4140625 9.828125 15.5390625 C7.188125 15.2090625 4.548125 14.8790625 1.828125 14.5390625 C1.56 13.5903125 1.291875 12.6415625 1.015625 11.6640625 C0.07825912 8.28638977 0.07825912 8.28638977 -3.171875 6.5390625 C-8.7879178 5.89452533 -8.7879178 5.89452533 -13.609375 8.2890625 C-16.6312869 12.64061563 -16.71425228 17.35989126 -16.171875 22.5390625 C-15.42650749 25.1162361 -15.42650749 25.1162361 -13.171875 26.5390625 C-9.05814088 27.66098999 -5.55182563 28.22903782 -1.671875 26.2890625 C0.04964401 24.50333363 0.04964401 24.50333363 0.828125 21.5390625 C3.468125 21.5390625 6.108125 21.5390625 8.828125 21.5390625 C8.37598921 26.39952229 7.29671239 29.07047511 3.828125 32.5390625 C-1.99358119 35.35633487 -8.25308316 35.58319254 -14.48828125 33.921875 C-19.08129892 31.9521938 -21.9257183 29.18671438 -24.32421875 24.8125 C-26.44271162 19.13064355 -25.96729882 13.63870601 -23.484375 8.1640625 C-18.29286741 -0.9811199 -9.69231086 -2.05700123 0 0 Z " fill="#0A0A0A" transform="translate(278.171875,71.4609375)"/>
<path d="M0 0 C1.32 0.66 2.64 1.32 4 2 C4.33 2.99 4.66 3.98 5 5 C3.68 6.32 2.36 7.64 1 9 C2.0828125 10.48113281 2.0828125 10.48113281 3.1875 11.9921875 C4.12524749 13.28627903 5.06273402 14.58055969 6 15.875 C6.47695312 16.52597656 6.95390625 17.17695312 7.4453125 17.84765625 C11 22.7734375 11 22.7734375 11 25 C11.5775 24.649375 12.155 24.29875 12.75 23.9375 C15.35801776 22.85082593 16.39417629 23.06934867 19 24 C19.495 25.98 19.495 25.98 20 28 C15.38 31.3 10.76 34.6 6 38 C2 36 2 36 1 33 C1.99 32.34 2.98 31.68 4 31 C3.51814387 26.2778099 1.30336567 23.29945628 -1.5625 19.6875 C-1.98724609 19.13771484 -2.41199219 18.58792969 -2.84960938 18.02148438 C-3.89181259 16.6748173 -4.94483843 15.33653799 -6 14 C-7.98 14.66 -9.96 15.32 -12 16 C-12.99 14.35 -13.98 12.7 -15 11 C-10.05 7.37 -5.1 3.74 0 0 Z " fill="#0B0B0B" transform="translate(151,98)"/>
<path d="M0 0 C5.24208645 2.30090178 8.80267066 6.39492207 12.8125 10.375 C13.61365234 11.14328125 14.41480469 11.9115625 15.24023438 12.703125 C15.99240234 13.44820312 16.74457031 14.19328125 17.51953125 14.9609375 C18.55750854 15.97873291 18.55750854 15.97873291 19.61645508 17.01708984 C21 19 21 19 20.9050293 21.12744141 C20 23 20 23 17 25 C15.99403703 24.0479279 14.99538437 23.08812654 14 22.125 C13.443125 21.59132812 12.88625 21.05765625 12.3125 20.5078125 C11 19 11 19 11 17 C5.34929583 21.71999996 0.13854429 26.78557612 -4.96191406 32.08691406 C-6.27182361 33.42754461 -7.63220501 34.71848131 -9 36 C-9.66 36 -10.32 36 -11 36 C-12.38938077 34.03852126 -13.7260411 32.03833424 -15 30 C-12.37906078 27.35011735 -9.75257802 24.70579857 -7.125 22.0625 C-6.00544922 20.93038086 -6.00544922 20.93038086 -4.86328125 19.77539062 C-4.14785156 19.05673828 -3.43242187 18.33808594 -2.6953125 17.59765625 C-2.03547363 16.93258057 -1.37563477 16.26750488 -0.69580078 15.58227539 C1 14 1 14 3 13 C2.49477778 8.62140745 -0.17827222 6.18348776 -3 3 C-2.01 2.01 -1.02 1.02 0 0 Z " fill="#0A0A0A" transform="translate(370,116)"/>
<path d="M0 0 C2.78960662 2.29146258 3.95538812 5.00710235 4.75 8.4375 C4.9345058 11.6162714 4.72272643 14.39772992 3.75 17.4375 C-0.00519916 21.19269916 -5.1780167 21.1170479 -10.25 21.4375 C-12.06774185 14.33965087 -13.68230491 7.78668342 -13.25 0.4375 C-8.88944488 -0.95787764 -4.44445844 -1.11111461 0 0 Z " fill="#ECECEC" transform="translate(223.25,79.5625)"/>
<path d="M0 0 C0.33 0 0.66 0 1 0 C5.79073161 25.32243852 5.53435624 51.64758736 1 77 C0.8443457 77.87591797 0.68869141 78.75183594 0.52832031 79.65429688 C-6.11572423 115.11572423 -6.11572423 115.11572423 -16 125 C-17.13735271 121.58794186 -16.93228572 121.20003032 -15.55859375 118.0703125 C-15.22496826 117.28575684 -14.89134277 116.50120117 -14.54760742 115.69287109 C-14.18127197 114.84547363 -13.81493652 113.99807617 -13.4375 113.125 C-6.72681873 96.94570216 -2.18234818 80.38677398 0 63 C0.09498779 62.25073242 0.18997559 61.50146484 0.2878418 60.72949219 C1.08842089 53.69578222 1.19090267 46.69916114 1.1875 39.625 C1.18886963 38.40288818 1.19023926 37.18077637 1.19165039 35.92163086 C1.14745922 27.58586712 0.68978483 19.39695184 -0.3762207 11.12939453 C-0.87559983 7.17128896 -1.09862484 3.86439367 0 0 Z " fill="#212121" transform="translate(446,211)"/>
<path d="M0 0 C0.66 0.33 1.32 0.66 2 1 C1.54109375 1.72703125 1.0821875 2.4540625 0.609375 3.203125 C-3.69372221 10.25441874 -6.73339222 17.0598336 -9 25 C-9.66 25 -10.32 25 -11 25 C-11 26.98 -11 28.96 -11 31 C-11.66 31 -12.32 31 -13 31 C-12.979375 31.969375 -12.95875 32.93875 -12.9375 33.9375 C-13 37 -13 37 -14 38 C-14.23693296 41.15158451 -14.39590076 44.29544912 -14.51757812 47.453125 C-14.7065998 51.11943226 -14.91643958 52.87465937 -17 56 C-17.30856351 58.4656538 -17.30856351 58.4656538 -17.265625 61.234375 C-17.26965332 62.2769043 -17.27368164 63.31943359 -17.27783203 64.39355469 C-17.26864746 65.50118164 -17.25946289 66.60880859 -17.25 67.75 C-17.24468262 68.87567383 -17.23936523 70.00134766 -17.23388672 71.16113281 C-17.24426669 85.24484324 -17.24426669 85.24484324 -13.8671875 98.765625 C-13.58101562 99.50296875 -13.29484375 100.2403125 -13 101 C-13.495 101.99 -13.495 101.99 -14 103 C-14.66 103 -15.32 103 -16 103 C-18.98272949 91.44192321 -20.38769509 80.39310144 -20.375 68.4375 C-20.37693359 66.69194824 -20.37693359 66.69194824 -20.37890625 64.91113281 C-20.28866207 57.73877153 -19.52672122 51.00327638 -18 44 C-17.85949219 43.307854 -17.71898438 42.61570801 -17.57421875 41.90258789 C-14.39788793 26.64179749 -8.21902564 13.19041197 0 0 Z " fill="#DEBC48" transform="translate(144,181)"/>
<path d="M0 0 C0.99 0.33 1.98 0.66 3 1 C-21.74921504 20.45884229 -55.57438413 26.72815508 -86.36572266 23.77294922 C-96.78054434 22.43420429 -110.1374195 19.908387 -119 14 C-113.3973564 14.66751711 -108.12315928 15.94579352 -102.6875 17.4375 C-100.98478899 17.88958296 -99.28166775 18.34012387 -97.578125 18.7890625 C-95.10652987 19.44120627 -92.63754323 20.09912492 -90.171875 20.7734375 C-70.62811972 25.4885393 -43.73901649 22.05822118 -26 13 C-24.31971216 12.47627392 -22.63129325 11.97824751 -20.9375 11.5 C-17.24198365 10.43698249 -14.12591248 9.31922539 -11 7 C-10.67 6.34 -10.34 5.68 -10 5 C-8.22265625 4.21875 -8.22265625 4.21875 -6.0625 3.5 C-3.29544796 2.57597536 -2.10862631 2.10862631 0 0 Z " fill="#D5B753" transform="translate(320,352)"/>
<path d="M0 0 C11.69631815 17.54447723 11.50497925 48.63700819 7.8125 68.5 C6.06734864 76.48742353 3.60488981 84.25740263 1 92 C0.67 92 0.34 92 0 92 C-0.30396933 88.1497218 0.18582654 85.12130211 1.375 81.5 C3.1133171 76.10465731 3.8609619 70.71414359 4.5703125 65.1015625 C5 62 5 62 5.51855469 60.07495117 C6.02756087 57.88121711 6.12933885 55.94890361 6.1328125 53.69921875 C6.13410156 52.88646484 6.13539063 52.07371094 6.13671875 51.23632812 C6.13285156 50.39521484 6.12898438 49.55410156 6.125 48.6875 C6.12886719 47.85798828 6.13273437 47.02847656 6.13671875 46.17382812 C6.12909703 41.34546652 5.72468405 36.78291471 5 32 C4.97431399 29.40204362 5.05939701 26.82993292 5.16015625 24.234375 C5.16413493 21.71125959 5.16413493 21.71125959 3 19 C2.57452823 17.09789093 2.22854586 15.17726164 1.9375 13.25 C1.77378906 12.1878125 1.61007812 11.125625 1.44140625 10.03125 C1.29574219 9.0309375 1.15007812 8.030625 1 7 C0.88527344 6.2265625 0.77054687 5.453125 0.65234375 4.65625 C0.42669865 3.10533719 0.21175504 1.55287027 0 0 Z " fill="#E7C442" transform="translate(367,204)"/>
<path d="M0 0 C2.375 1.5 2.375 1.5 4 4 C4.68887481 8.27963474 4.4567061 11.31494085 2 15 C2.99 16.485 2.99 16.485 4 18 C2.22604492 17.57533503 0.45589369 17.1347591 -1.3125 16.6875 C-2.29863281 16.44386719 -3.28476563 16.20023437 -4.30078125 15.94921875 C-7.05637058 14.98017648 -8.31553008 14.35825789 -10 12 C-10.75912409 5.16788321 -10.75912409 5.16788321 -8.375 1.5 C-5.27859404 -0.45562482 -3.60146865 -0.60024477 0 0 Z " fill="#EAEAEA" transform="translate(252,412)"/>
<path d="M0 0 C2.875 1.5 2.875 1.5 5 4 C5.75309087 7.53100152 5.66663201 10.74516327 3.9375 14 C0.76942356 15.63513623 -1.50115821 15.48259887 -5 15 C-8.42123173 12.52506641 -9.79477021 11.11736219 -10.5625 6.9375 C-9.40268526 0.88068969 -5.92544892 -0.96742023 0 0 Z " fill="#EEEEEE" transform="translate(380,353)"/>
<path d="M0 0 C13.08534595 12.14012909 20.01039511 31.30326769 25 48 C25.25910156 48.81984375 25.51820313 49.6396875 25.78515625 50.484375 C27.57988608 56.99769914 26.75969005 63.35784509 26 70 C25.67 70 25.34 70 25 70 C24.91548584 69.33693848 24.83097168 68.67387695 24.74389648 67.99072266 C21.84969809 46.04636832 16.24736662 23.70099864 1.69921875 6.23828125 C0 4 0 4 0 0 Z " fill="#2F1D0E" transform="translate(350,170)"/>
<path d="M0 0 C3.59324596 0.61109625 5.60419684 2.06539749 8.4375 4.3125 C28.51376786 19.22247493 51.31911095 28.56407409 75 36 C75 36.33 75 36.66 75 37 C49.00602088 36.0547644 19.03654638 17.78650357 0 1 C0 0.67 0 0.34 0 0 Z " fill="#151515" transform="translate(126,406)"/>
<path d="M0 0 C0 0.66 0 1.32 0 2 C-0.78117187 2.08636719 -1.56234375 2.17273437 -2.3671875 2.26171875 C-24.55125018 4.95443905 -48.43027318 8.41792176 -68.484375 18.8046875 C-71 20 -71 20 -74 19 C-69.36488835 15.22104689 -64.14020432 13.61498069 -58.5625 11.625 C-57.44883057 11.22724365 -56.33516113 10.8294873 -55.18774414 10.41967773 C-37.37260548 4.20232242 -18.95943053 -0.22943205 0 0 Z " fill="#1E1E1E" transform="translate(240,50)"/>
<path d="M0 0 C-0.66 0.66 -1.32 1.32 -2 2 C-4.6015625 1.9765625 -4.6015625 1.9765625 -7.625 1.625 C-8.62789063 1.51414063 -9.63078125 1.40328125 -10.6640625 1.2890625 C-11.82035156 1.14597656 -11.82035156 1.14597656 -13 1 C-13 0.34 -13 -0.32 -13 -1 C-16.92054926 -2.81004797 -20.26423984 -3.32841167 -24.5625 -3.5625 C-30.63995894 -3.90677224 -30.63995894 -3.90677224 -32.93286133 -4.50048828 C-47.53610685 -8.02927538 -65.84510182 -4.61503451 -79 2 C-82.875 2.1875 -82.875 2.1875 -86 2 C-86 1.34 -86 0.68 -86 0 C-58.18578597 -9.76522117 -27.8428151 -10.00918718 0 0 Z " fill="#D9BA52" transform="translate(293,131)"/>
<path d="M0 0 C0.33 0 0.66 0 1 0 C1.10957031 0.62648438 1.21914062 1.25296875 1.33203125 1.8984375 C1.49058594 2.71570313 1.64914063 3.53296875 1.8125 4.375 C1.96332031 5.18710937 2.11414063 5.99921875 2.26953125 6.8359375 C2.87544942 9.35820641 2.87544942 9.35820641 6 11 C8.32387947 11.39387788 10.65793749 11.73486085 13 12 C13 12.66 13 13.32 13 14 C11.3603125 14.2165625 11.3603125 14.2165625 9.6875 14.4375 C6.06877013 14.88288104 6.06877013 14.88288104 3 16 C2.19787372 17.87387216 2.19787372 17.87387216 1.8125 20.0625 C1.57466797 21.16271484 1.57466797 21.16271484 1.33203125 22.28515625 C1.22246094 22.85105469 1.11289063 23.41695313 1 24 C0.34 23.67 -0.32 23.34 -1 23 C-1.73075648 20.6859378 -2.40138258 18.35171131 -3 16 C-6.63 15.34 -10.26 14.68 -14 14 C-11.43048029 11.43048029 -9.35726995 11.3194831 -5.875 10.66015625 C-3.61695499 10.07609358 -3.61695499 10.07609358 -2 7 C-1.29187186 4.67891331 -0.61975848 2.34622853 0 0 Z " fill="#1D1D1D" transform="translate(84,261)"/>
<path d="M0 0 C2 2 2 2 3.25 5.5 C4.66610035 9.25313091 4.66610035 9.25313091 8.1875 10.4375 C9.115625 10.623125 10.04375 10.80875 11 11 C11 11.66 11 12.32 11 13 C9.906875 13.28875 8.81375 13.5775 7.6875 13.875 C4.92132267 15.0117085 4.15347334 15.67135537 2.8671875 18.42578125 C2.13470239 20.9396986 1.50600479 23.4314233 1 26 C0.67 26 0.34 26 0 26 C-0.08636719 25.38511719 -0.17273438 24.77023437 -0.26171875 24.13671875 C-1.07007084 18.93407342 -1.07007084 18.93407342 -4.3125 15 C-6.8852937 14.04268141 -9.28428467 13.38795933 -12 13 C-11.67 12.34 -11.34 11.68 -11 11 C-8.04179941 10.09408602 -5.03989563 9.59941604 -2 9 C-1.34 6.03 -0.68 3.06 0 0 Z " fill="#171717" transform="translate(415,262)"/>
<path d="M0 0 C3.3419823 1.37777283 4.69903605 2.66642165 6.4375 5.8125 C8.57459142 9.43513057 10.93852162 12.08786203 14 15 C15.54924096 16.79633509 17.06578791 18.61532526 18.5703125 20.44921875 C20.11481807 22.24681775 20.11481807 22.24681775 23 24 C23.99 24 24.98 24 26 24 C25.67 24.99 25.34 25.98 25 27 C25.66 27 26.32 27 27 27 C27.433125 27.78375 27.86625 28.5675 28.3125 29.375 C30.29124442 32.45304688 31.6273092 32.84618473 35 34 C35.33 34.66 35.66 35.32 36 36 C38.02463255 36.65213292 38.02463255 36.65213292 40 37 C40.495 38.98 40.495 38.98 41 41 C36.45650673 39.49970954 33.00511957 36.95409566 29.3125 34 C28.69528076 33.50725586 28.07806152 33.01451172 27.44213867 32.50683594 C17.27503169 24.27173019 4.27666675 12.83000026 0 0 Z " fill="#D5B551" transform="translate(142,315)"/>
<path d="M0 0 C0.66 0.99 1.32 1.98 2 3 C2.66 3.66 3.32 4.32 4 5 C4.33 5.99 4.66 6.98 5 8 C7.01508358 8.73323796 7.01508358 8.73323796 9 9 C5.66974452 12.43117231 2.21150589 15.59166135 -1.44921875 18.66796875 C-2.68048318 19.72555357 -3.85228537 20.85228537 -5 22 C-6.80058658 16.86575598 -4.90983867 13.00998367 -3.0625 8.1875 C-2.77181641 7.39923828 -2.48113281 6.61097656 -2.18164062 5.79882812 C-1.46550951 3.86175216 -0.73423279 1.93028735 0 0 Z " fill="#EDEDED" transform="translate(323,98)"/>
<path d="M0 0 C5.51757333 3.91246109 10.32519867 8.12095978 15 13 C15.97669715 13.98162997 16.95557901 14.96109542 17.9375 15.9375 C18.618125 16.618125 19.29875 17.29875 20 18 C19.01 18.33 18.02 18.66 17 19 C15.68 17.68 14.36 16.36 13 15 C12.67 16.32 12.34 17.64 12 19 C11.67 19 11.34 19 11 19 C10.67 19.99 10.34 20.98 10 22 C6.88776996 18.34193269 5.18449804 14.24429815 3.3125 9.875 C2.99216797 9.14667969 2.67183594 8.41835937 2.34179688 7.66796875 C0 2.26535848 0 2.26535848 0 0 Z " fill="#E8E8E8" transform="translate(171,96)"/>
<path d="M0 0 C0 0.33 0 0.66 0 1 C-1.86978516 1.32871094 -1.86978516 1.32871094 -3.77734375 1.6640625 C-19.91646245 4.62077456 -34.54973947 9.14841335 -49 17 C-49.66 16.34 -50.32 15.68 -51 15 C-42.55543758 10.30477771 -34.30356565 5.77258579 -25 3 C-24.06921631 2.7213208 -24.06921631 2.7213208 -23.11962891 2.43701172 C-15.23305078 0.12565657 -8.22153143 -1.76175673 0 0 Z " fill="#322215" transform="translate(236,124)"/>
<path d="M0 0 C0.66 0.99 1.32 1.98 2 3 C1.07149033 5.47602578 0.08234979 7.66489952 -1.125 10 C-1.79231192 11.36039004 -2.45636556 12.72238309 -3.1171875 14.0859375 C-3.44299805 14.75463867 -3.76880859 15.42333984 -4.10449219 16.11230469 C-9.13828234 26.72333671 -11.85750868 38.34658856 -13 50 C-16.09720766 45.35418851 -14.96385746 41.34785432 -14 36 C-10.71052311 23.45172522 -5.97722217 11.51168714 0 0 Z " fill="#302110" transform="translate(138,186)"/>
<path d="M0 0 C8.76711039 10.47903136 16.54653566 34.510859 16.125 48 C16.10695313 48.763125 16.08890625 49.52625 16.0703125 50.3125 C16.04710937 50.869375 16.02390625 51.42625 16 52 C14.1700131 49.25501966 13.64234687 48.04393436 13.02734375 44.95703125 C12.85420654 44.14161865 12.68106934 43.32620605 12.50268555 42.48608398 C12.2229187 41.16265991 12.2229187 41.16265991 11.9375 39.8125 C9.78908721 30.12285934 6.61481374 21.03468663 2.94702148 11.8215332 C2.56618408 10.85820068 2.18534668 9.89486816 1.79296875 8.90234375 C1.4477417 8.05148193 1.10251465 7.20062012 0.74682617 6.32397461 C0 4 0 4 0 0 Z " fill="#1C1C1C" transform="translate(430,164)"/>
<path d="M0 0 C11.14505078 4.8791697 20.76926814 12.16786388 30 20 C29.34 20.66 28.68 21.32 28 22 C26.89326166 21.23286356 25.78972306 20.46110997 24.6875 19.6875 C24.07261719 19.25824219 23.45773437 18.82898438 22.82421875 18.38671875 C21 17 21 17 19.41796875 15.3828125 C17.37833742 13.39375054 15.81200085 13.2008572 13 13 C10.24743756 13.84979475 10.24743756 13.84979475 8 15 C7.15545644 11.62182575 6.89155081 9.32534757 8 6 C7.236875 5.71125 6.47375 5.4225 5.6875 5.125 C3 4 3 4 0 2 C0 1.34 0 0.68 0 0 Z " fill="#F0C534" transform="translate(306,137)"/>
<path d="M0 0 C1.76923828 0.01353516 1.76923828 0.01353516 3.57421875 0.02734375 C4.47785156 0.03894531 5.38148437 0.05054688 6.3125 0.0625 C5.79473379 4.16697392 3.66622556 6.01949523 0.75 8.8125 C-0.48943359 10.01132812 -0.48943359 10.01132812 -1.75390625 11.234375 C-2.39199219 11.83765625 -3.03007813 12.4409375 -3.6875 13.0625 C-4.7605756 9.8432732 -4.48696725 9.16043558 -3.6875 6.0625 C-4.0175 5.4025 -4.3475 4.7425 -4.6875 4.0625 C-7.21483235 3.40694881 -7.21483235 3.40694881 -9.6875 3.0625 C-9.6875 2.4025 -9.6875 1.7425 -9.6875 1.0625 C-6.26517028 -0.07827657 -3.60076783 -0.03565117 0 0 Z " fill="#3A3A3A" transform="translate(96.6875,317.9375)"/>
<path d="M0 0 C2.59583531 3.16081123 4.17645154 6.35773987 5.75 10.125 C6.19859375 11.17945312 6.6471875 12.23390625 7.109375 13.3203125 C8 16 8 16 7 18 C2.71 14.04 -1.58 10.08 -6 6 C-5.67 5.01 -5.34 4.02 -5 3 C-4.01 3 -3.02 3 -2 3 C-2 2.34 -2 1.68 -2 1 C-1.34 0.67 -0.68 0.34 0 0 Z " fill="#ECECEC" transform="translate(186,88)"/>
<path d="M0 0 C3.42115281 3.42115281 2.30380725 8.29575405 2.32226562 12.91601562 C2.32009033 13.63958252 2.31791504 14.36314941 2.31567383 15.10864258 C2.31256649 17.26632763 2.3357705 19.42256823 2.36132812 21.58007812 C2.40025309 30.49235322 1.46410684 38.38075379 -1 47 C-1.33 47 -1.66 47 -2 47 C-1.90150757 45.67053345 -1.90150757 45.67053345 -1.80102539 44.31420898 C-1.11091242 34.56580875 -0.71128744 24.83056528 -0.4375 15.0625 C-0.39413377 13.58918522 -0.35051504 12.11587786 -0.30664062 10.64257812 C-0.20153319 7.09513223 -0.09978327 3.54760014 0 0 Z " fill="#28170D" transform="translate(376,232)"/>
<path d="M0 0 C2.375 1.5 2.375 1.5 4 4 C4.68887481 8.27963474 4.4567061 11.31494085 2 15 C2.99 16.485 2.99 16.485 4 18 C2.22604492 17.57533503 0.45589369 17.1347591 -1.3125 16.6875 C-2.29863281 16.44386719 -3.28476563 16.20023437 -4.30078125 15.94921875 C-7.05637058 14.98017648 -8.31553008 14.35825789 -10 12 C-10.75912409 5.16788321 -10.75912409 5.16788321 -8.375 1.5 C-5.27859404 -0.45562482 -3.60146865 -0.60024477 0 0 Z M-8 4 C-8.3176246 5.91006306 -8.3176246 5.91006306 -8.25 8 C-8.25515625 8.70125 -8.2603125 9.4025 -8.265625 10.125 C-8.15705515 12.2435669 -8.15705515 12.2435669 -6 14 C-1.65805064 13.90304884 -1.65805064 13.90304884 2 12 C2.22918242 7.98342857 2.22918242 7.98342857 2 4 C0.11499729 1.68436913 0.11499729 1.68436913 -3 1.75 C-6.11499729 1.68436913 -6.11499729 1.68436913 -8 4 Z " fill="#313131" transform="translate(252,412)"/>
<path d="M0 0 C3.32134957 1.14171392 6.29652203 2.65898368 9.3125 4.4375 C10.00988281 4.84871094 10.70726562 5.25992187 11.42578125 5.68359375 C12.20501953 6.33521484 12.20501953 6.33521484 13 7 C13 7.99 13 8.98 13 10 C7.06 10.495 7.06 10.495 1 11 C3.31 12.65 5.62 14.3 8 16 C7.67 16.66 7.34 17.32 7 18 C3.04 15.69 -0.92 13.38 -5 11 C-4.67 10.01 -4.34 9.02 -4 8 C1.94 7.505 1.94 7.505 8 7 C6.68 6.21625 5.36 5.4325 4 4.625 C1.75 3.2890625 1.75 3.2890625 0 2 C0 1.34 0 0.68 0 0 Z " fill="#3A3A3A" transform="translate(390,329)"/>
<path d="M0 0 C0.66 0.33 1.32 0.66 2 1 C1.67 1.66 1.34 2.32 1 3 C-2.0625 3.625 -2.0625 3.625 -5 4 C-5 4.66 -5 5.32 -5 6 C-7.31 6.33 -9.62 6.66 -12 7 C-12 7.66 -12 8.32 -12 9 C-12.93972656 9.50660156 -12.93972656 9.50660156 -13.8984375 10.0234375 C-14.71570313 10.46945313 -15.53296875 10.91546875 -16.375 11.375 C-17.18710938 11.81585938 -17.99921875 12.25671875 -18.8359375 12.7109375 C-21.10814302 13.9443893 -21.10814302 13.9443893 -23 16 C-23.99 16 -24.98 16 -26 16 C-26 16.66 -26 17.32 -26 18 C-30.38461538 21 -30.38461538 21 -33 21 C-33 21.66 -33 22.32 -33 23 C-34.32 22.67 -35.64 22.34 -37 22 C-29.75980454 16.58116621 -22.4579878 11.48929388 -14.5625 7.0625 C-13.91345703 6.69777588 -13.26441406 6.33305176 -12.59570312 5.95727539 C-8.49317618 3.70141154 -4.38663332 1.6470259 0 0 Z " fill="#DABA56" transform="translate(204,132)"/>
<path d="M0 0 C1.23922223 3.71766668 0.57018942 5.43889537 -0.4375 9.1875 C-0.72496094 10.27417969 -1.01242187 11.36085938 -1.30859375 12.48046875 C-1.53675781 13.31191406 -1.76492188 14.14335938 -2 15 C-5.99904969 15 -7.80200422 13.27413033 -11 11 C-9.52202738 7.32943063 -7.52384523 5.58914217 -4.375 3.25 C-3.55773437 2.63640625 -2.74046875 2.0228125 -1.8984375 1.390625 C-0.95871094 0.70226562 -0.95871094 0.70226562 0 0 Z " fill="#E8E8E8" transform="translate(347,105)"/>
<path d="M0 0 C0.75 1.625 0.75 1.625 1 4 C-3.24950495 11.32673267 -3.24950495 11.32673267 -7.4375 12.9375 C-10.03540014 14.01467811 -11.3008307 14.79107991 -13 17 C-13.65213292 19.02463255 -13.65213292 19.02463255 -14 21 C-14.33 21.66 -14.66 22.32 -15 23 C-15.99 23 -16.98 23 -18 23 C-18 23.66 -18 24.32 -18 25 C-18.99 24.67 -19.98 24.34 -21 24 C-14.43711198 15.59521153 -7.59686332 7.494203 0 0 Z " fill="#D7B648" transform="translate(166,155)"/>
<path d="M0 0 C0.66 0 1.32 0 2 0 C2.99 3.96 3.98 7.92 5 12 C6.32 9.36 7.64 6.72 9 4 C10.305239 7.91571701 9.32239848 9.03892997 7.5625 12.6875 C7.08941406 13.68136719 6.61632812 14.67523438 6.12890625 15.69921875 C5.75636719 16.45847656 5.38382813 17.21773438 5 18 C4.34 18 3.68 18 3 18 C2.01 13.71 1.02 9.42 0 5 C-1.98 9.455 -1.98 9.455 -4 14 C-4.66 14 -5.32 14 -6 14 C-2.90009699 3.90882638 -2.90009699 3.90882638 0 0 Z " fill="#2C2C2C" transform="translate(178,396)"/>
<path d="M0 0 C1.2271875 0.19722656 2.454375 0.39445312 3.71875 0.59765625 C4.40710938 0.71125488 5.09546875 0.82485352 5.8046875 0.94189453 C10.36049294 1.6695579 14.93178435 2.29334372 19.5 2.9375 C21.34119911 3.20014763 23.18234923 3.46313901 25.0234375 3.7265625 C25.81411621 3.8395166 26.60479492 3.9524707 27.41943359 4.06884766 C27.98227051 4.14925293 28.54510742 4.2296582 29.125 4.3125 C29.125 4.6425 29.125 4.9725 29.125 5.3125 C16.77925338 8.29643507 3.19762865 4.07968034 -8.875 1.3125 C-5.17308171 -1.15544553 -4.28206636 -0.72394647 0 0 Z " fill="#2B2B2B" transform="translate(206.875,442.6875)"/>
<path d="M0 0 C-0.77904328 10.55808656 -0.77904328 10.55808656 -3 15 C-3.33 15 -3.66 15 -4 15 C-4 13.35 -4 11.7 -4 10 C-8.53140653 9.06619039 -8.53140653 9.06619039 -13 10 C-11.54845769 6.37114422 -9.7599362 4.84567327 -6.5 2.75 C-5.30890625 1.96882813 -5.30890625 1.96882813 -4.09375 1.171875 C-2 0 -2 0 0 0 Z " fill="#252525" transform="translate(161,386)"/>
<path d="M0 0 C2.875 1.5 2.875 1.5 5 4 C5.75309087 7.53100152 5.66663201 10.74516327 3.9375 14 C0.76942356 15.63513623 -1.50115821 15.48259887 -5 15 C-8.42123173 12.52506641 -9.79477021 11.11736219 -10.5625 6.9375 C-9.40268526 0.88068969 -5.92544892 -0.96742023 0 0 Z M-8 4 C-8.3267107 7.07108055 -8.48138276 9.15050101 -6.9375 11.875 C-3.90185629 13.63763183 -1.42201828 13.37331109 2 13 C4.27671738 10.25158089 4.27671738 10.25158089 3.8125 7.5 C2.91447755 4.73685401 2.42840184 3.5910219 0 2 C-4.51104481 1.44504417 -4.51104481 1.44504417 -8 4 Z " fill="#292929" transform="translate(380,353)"/>
<path d="M0 0 C0.66 0.33 1.32 0.66 2 1 C1.54109375 1.72703125 1.0821875 2.4540625 0.609375 3.203125 C-3.69372221 10.25441874 -6.73339222 17.0598336 -9 25 C-9.66 25 -10.32 25 -11 25 C-11 26.98 -11 28.96 -11 31 C-11.66 31 -12.32 31 -13 31 C-13 32.65 -13 34.3 -13 36 C-13.99 36 -14.98 36 -16 36 C-12.45209343 22.96216446 -6.88141976 11.5430267 0 0 Z " fill="#DABA50" transform="translate(144,181)"/>
<path d="M0 0 C1.67110042 2.96178773 2.32682752 5.37071192 2.625 8.75 C2.69976562 9.54921875 2.77453125 10.3484375 2.8515625 11.171875 C2.92503906 12.07679687 2.92503906 12.07679687 3 13 C2.34 13 1.68 13 1 13 C0.67 13.66 0.34 14.32 0 15 C-0.66 15 -1.32 15 -2 15 C-3.32 11.7 -4.64 8.4 -6 5 C-5.34 5 -4.68 5 -4 5 C-3.67 4.01 -3.34 3.02 -3 2 C-2.01 2.33 -1.02 2.66 0 3 C0 2.01 0 1.02 0 0 Z " fill="#EBEBEB" transform="translate(202,86)"/>
<path d="M0 0 C3.91660106 -0.05906707 7.83308457 -0.09394858 11.75 -0.125 C12.84183594 -0.14175781 13.93367187 -0.15851562 15.05859375 -0.17578125 C22.57356933 -0.22024856 29.63271981 0.52221223 37 2 C37 2.33 37 2.66 37 3 C24.65146452 3.2170641 12.33201708 2.56691997 0 2 C0 1.34 0 0.68 0 0 Z " fill="#141414" transform="translate(240,50)"/>
<path d="M0 0 C0.66 0.66 1.32 1.32 2 2 C0.68 2.99 -0.64 3.98 -2 5 C-0.700625 5.12375 0.59875 5.2475 1.9375 5.375 C4.15234375 5.5859375 4.15234375 5.5859375 6 6 C6.33 6.66 6.66 7.32 7 8 C4.36 8 1.72 8 -1 8 C-1.66 10.97 -2.32 13.94 -3 17 C-3.66 17 -4.32 17 -5 17 C-4.125 10.25 -4.125 10.25 -3 8 C-3.78375 8.495 -4.5675 8.99 -5.375 9.5 C-8 11 -8 11 -10 11 C-8.55218207 7.55571735 -6.72305391 5.63869038 -3.875 3.25 C-3.15054688 2.63640625 -2.42609375 2.0228125 -1.6796875 1.390625 C-0.84824219 0.70226562 -0.84824219 0.70226562 0 0 Z " fill="#2D2D2D" transform="translate(126,355)"/>
<path d="M0 0 C7.04482078 2.32868424 14.05699541 4.74330818 21.0625 7.1875 C22.11888672 7.55552734 23.17527344 7.92355469 24.26367188 8.30273438 C26.84263518 9.2012872 29.42140653 10.10038653 32 11 C32 11.33 32 11.66 32 12 C20.45508558 11.58018493 9.46538037 6.58718772 -1 2 C-0.67 1.34 -0.34 0.68 0 0 Z " fill="#272727" transform="translate(169,431)"/>
<path d="M0 0 C0 0.66 0 1.32 0 2 C-1.98 2 -3.96 2 -6 2 C-6.33 2.99 -6.66 3.98 -7 5 C-6.37351562 4.97679687 -5.74703125 4.95359375 -5.1015625 4.9296875 C-4.28429687 4.91164063 -3.46703125 4.89359375 -2.625 4.875 C-1.81289063 4.85179687 -1.00078125 4.82859375 -0.1640625 4.8046875 C2 5 2 5 4 7 C3.67028521 10.29714793 3.3773161 11.6226839 1 14 C-1.5 14.3125 -1.5 14.3125 -4 14 C-4.66 13.01 -5.32 12.02 -6 11 C-3.69 11 -1.38 11 1 11 C1 10.01 1 9.02 1 8 C-0.918125 7.814375 -0.918125 7.814375 -2.875 7.625 C-6.75 7.25 -6.75 7.25 -9 5 C-8.75 2.4375 -8.75 2.4375 -8 0 C-5.13822943 -1.43088528 -3.06624227 -0.59991697 0 0 Z " fill="#242424" transform="translate(327,396)"/>
<path d="M0 0 C2.5625 0.1875 2.5625 0.1875 4.5625 2.1875 C4.6875 4.8125 4.6875 4.8125 4.5625 7.1875 C3.5725 7.6825 3.5725 7.6825 2.5625 8.1875 C2.5625 6.2075 2.5625 4.2275 2.5625 2.1875 C1.2425 2.1875 -0.0775 2.1875 -1.4375 2.1875 C-1.42589844 2.89777344 -1.41429688 3.60804688 -1.40234375 4.33984375 C-1.38880859 5.71849609 -1.38880859 5.71849609 -1.375 7.125 C-1.36339844 8.04152344 -1.35179688 8.95804687 -1.33984375 9.90234375 C-1.4375 12.1875 -1.4375 12.1875 -2.4375 13.1875 C-4.8125 13.5 -4.8125 13.5 -7.4375 13.1875 C-9.3125 11.5 -9.3125 11.5 -10.4375 9.1875 C-10.125 6.4375 -10.125 6.4375 -9.4375 4.1875 C-8.7775 4.1875 -8.1175 4.1875 -7.4375 4.1875 C-7.4375 6.1675 -7.4375 8.1475 -7.4375 10.1875 C-6.1175 10.5175 -4.7975 10.8475 -3.4375 11.1875 C-3.44910156 10.47722656 -3.46070312 9.76695312 -3.47265625 9.03515625 C-3.48619141 7.65650391 -3.48619141 7.65650391 -3.5 6.25 C-3.51160156 5.33347656 -3.52320312 4.41695313 -3.53515625 3.47265625 C-3.39916631 0.29049156 -3.17893404 0.24453339 0 0 Z " fill="#333333" transform="translate(111.4375,337.8125)"/>
<path d="M0 0 C6.7186905 1.99613268 12.80734808 4.7291421 19 8 C17.25 10.0625 17.25 10.0625 15 12 C11.49696662 11.68672059 9.85489191 10.18689664 7.5 7.6875 C6.90058594 7.06101563 6.30117187 6.43453125 5.68359375 5.7890625 C5.12800781 5.19867188 4.57242188 4.60828125 4 4 C3.195625 3.195625 2.39125 2.39125 1.5625 1.5625 C1.046875 1.046875 0.53125 0.53125 0 0 Z " fill="#EAEAEA" transform="translate(110,145)"/>
<path d="M0 0 C1.06323533 3.18970599 0.94985875 4.23098304 0.29296875 7.421875 C0.11830078 8.28296875 -0.05636719 9.1440625 -0.23632812 10.03125 C-0.42646484 10.9284375 -0.61660156 11.825625 -0.8125 12.75 C-0.99103516 13.63171875 -1.16957031 14.5134375 -1.35351562 15.421875 C-2.36994943 20.35359713 -3.54466963 25.17962972 -5 30 C-7 27 -7 27 -6.86328125 25.08203125 C-6.59064453 23.95861328 -6.59064453 23.95861328 -6.3125 22.8125 C-5.54845993 19.49015803 -4.83976528 16.17949771 -4.26171875 12.8203125 C-4.07258911 11.73592896 -4.07258911 11.73592896 -3.87963867 10.62963867 C-3.62817598 9.17762358 -3.38216927 7.72465219 -3.1418457 6.27075195 C-2.82663685 4.50092999 -2.4206417 2.74776628 -2 1 C-1.34 0.67 -0.68 0.34 0 0 Z " fill="#303030" transform="translate(447,279)"/>
<path d="M0 0 C2.03876191 3.05814287 2.41616481 4.44883672 2.8125 8 C2.92207031 8.86625 3.03164063 9.7325 3.14453125 10.625 C3 13 3 13 1.69921875 14.78125 C0 16 0 16 -3 16.5 C-6 16 -6 16 -7.8125 14.0625 C-9.36029465 10.07081907 -9.73147837 6.25004918 -10 2 C-9.34 2 -8.68 2 -8 2 C-7.66430703 3.62451419 -7.3315204 5.24962917 -7 6.875 C-6.814375 7.77992188 -6.62875 8.68484375 -6.4375 9.6171875 C-6 12 -6 12 -6 14 C-4.02 13.67 -2.04 13.34 0 13 C0 8.71 0 4.42 0 0 Z " fill="#292929" transform="translate(280,409)"/>
<path d="M0 0 C0 0.66 0 1.32 0 2 C-2.31 2.33 -4.62 2.66 -7 3 C-6.67 4.65 -6.34 6.3 -6 8 C-2.535 7.505 -2.535 7.505 1 7 C0.67 7.66 0.34 8.32 0 9 C-0.99 9.33 -1.98 9.66 -3 10 C-3.33 11.65 -3.66 13.3 -4 15 C-2.8553125 14.505 -2.8553125 14.505 -1.6875 14 C1 13 1 13 4 13 C4 13.66 4 14.32 4 15 C1.03 15.66 -1.94 16.32 -5 17 C-5.67220351 15.06441401 -6.33758077 13.12645628 -7 11.1875 C-7.37125 10.10855469 -7.7425 9.02960938 -8.125 7.91796875 C-9 5 -9 5 -9 2 C-3.375 0 -3.375 0 0 0 Z " fill="#303030" transform="translate(304,403)"/>
<path d="M0 0 C0.309375 0.639375 0.61875 1.27875 0.9375 1.9375 C1.8345163 3.93610821 1.8345163 3.93610821 3 5 C4.34747084 5.23075082 5.70377565 5.41153063 7.0625 5.5625 C8.361875 5.706875 9.66125 5.85125 11 6 C11.5625 7.9375 11.5625 7.9375 12 10 C11 11 11 11 8.5625 11.25 C7.716875 11.1675 6.87125 11.085 6 11 C5.34 10.01 4.68 9.02 4 8 C1.50335747 7.11409459 -0.32115341 7 -3 7 C-3.66 6.01 -4.32 5.02 -5 4 C-4.01 4 -3.02 4 -2 4 C-1.67 3.01 -1.34 2.02 -1 1 C-0.67 0.67 -0.34 0.34 0 0 Z " fill="#E6E6E6" transform="translate(317,397)"/>
<path d="M0 0 C3.9042419 3.4407246 6.14921381 7.37732175 8.625 11.875 C9.01945312 12.56980469 9.41390625 13.26460937 9.8203125 13.98046875 C12.00523586 17.90004411 13.73694398 21.66758206 15 26 C12 25 12 25 10.46484375 22.34765625 C9.96082031 21.26355469 9.45679688 20.17945313 8.9375 19.0625 C6.96017592 14.68785475 6.96017592 14.68785475 4 11 C3.67 10.154375 3.34 9.30875 3 8.4375 C2.25129886 5.85158559 2.25129886 5.85158559 0 5 C0 3.35 0 1.7 0 0 Z " fill="#E0BF4F" transform="translate(352,177)"/>
<path d="M0 0 C0.33 0 0.66 0 1 0 C0.97213831 9.72372951 -0.36064373 18.50028318 -2.9375 27.875 C-3.20256348 28.8438916 -3.46762695 29.8127832 -3.74072266 30.81103516 C-5.72219136 37.72219136 -5.72219136 37.72219136 -8 40 C-8.2757948 35.14004841 -7.28396318 31.27530011 -5.6875 26.75 C-2.75170974 17.98532782 -1.29983764 9.13056681 0 0 Z " fill="#D1B156" transform="translate(375,256)"/>
<path d="M0 0 C2.64 0.66 5.28 1.32 8 2 C8.33 3.98 8.66 5.96 9 8 C7.20793453 7.85915204 5.41635083 7.71216299 3.625 7.5625 C2.62726563 7.48128906 1.62953125 7.40007812 0.6015625 7.31640625 C-2 7 -2 7 -4 6 C-4 4.68 -4 3.36 -4 2 C-2.68 2 -1.36 2 0 2 C0 1.34 0 0.68 0 0 Z M3 5 C4 7 4 7 4 7 Z " fill="#EFEFEF" transform="translate(279,85)"/>
<path d="M0 0 C6.59922747 9.89884121 8.45077862 24.27975596 8 36 C7.67 36 7.34 36 7 36 C5.64427848 31.0855095 5 27.10719035 5 22 C4.34 21.01 3.68 20.02 3 19 C2.57452823 17.09789093 2.22854586 15.17726164 1.9375 13.25 C1.77378906 12.1878125 1.61007812 11.125625 1.44140625 10.03125 C1.29574219 9.0309375 1.15007812 8.030625 1 7 C0.88527344 6.2265625 0.77054687 5.453125 0.65234375 4.65625 C0.42669865 3.10533719 0.21175504 1.55287027 0 0 Z " fill="#DABB51" transform="translate(367,204)"/>
<path d="M0 0 C0 0.33 0 0.66 0 1 C-2.5 1.3125 -5 1.625 -7.5 1.9375 C-8.19609375 2.02451172 -8.8921875 2.11152344 -9.609375 2.20117188 C-11.02659277 2.3783241 -12.44391246 2.55466276 -13.86132812 2.73022461 C-15.28272462 2.90952177 -16.70333182 3.09519567 -18.12304688 3.28735352 C-21.94164522 3.79628922 -25.64825062 4.11599652 -29.5 4.0625 C-30.3559375 4.05347656 -31.211875 4.04445312 -32.09375 4.03515625 C-32.7228125 4.02355469 -33.351875 4.01195312 -34 4 C-24.63033426 -2.24644382 -10.78598986 -0.19015457 0 0 Z " fill="#EEC434" transform="translate(258,125)"/>
<path d="M0 0 C0.66 0.99 1.32 1.98 2 3 C-0.64 7.29 -3.28 11.58 -6 16 C-7.32 15.34 -8.64 14.68 -10 14 C-8.66666667 11.33333333 -7.33333333 8.66666667 -6 6 C-5.34 6 -4.68 6 -4 6 C-1.65130253 4.02709413 -0.99897713 2.99693138 0 0 Z " fill="#F5F5EE" transform="translate(141,177)"/>
<path d="M0 0 C0.33 1.32 0.66 2.64 1 4 C1.99 4 2.98 4 4 4 C4 5.65 4 7.3 4 9 C3.34 9 2.68 9 2 9 C2.33 9.99 2.66 10.98 3 12 C1.35 12.33 -0.3 12.66 -2 13 C-2 11.35 -2 9.7 -2 8 C-0.68 7.34 0.64 6.68 2 6 C0.02 6 -1.96 6 -4 6 C-4.33 4.35 -4.66 2.7 -5 1 C-2 0 -2 0 0 0 Z " fill="#DEDEDE" transform="translate(302,405)"/>
<path d="M0 0 C8.22699694 -0.0929021 16.3243067 -0.10384352 24.515625 0.77734375 C28.35332019 1.12128813 32.14937115 1.06312506 36 1 C36 1.33 36 1.66 36 2 C30.34084037 2.80203509 24.83885397 3.19240144 19.125 3.1875 C17.9496167 3.1884668 17.9496167 3.1884668 16.75048828 3.18945312 C10.9931339 3.13703773 5.56331429 2.56555578 0 1 C0 0.67 0 0.34 0 0 Z " fill="#EBC439" transform="translate(227,372)"/>
<path d="M0 0 C0.66 0.66 1.32 1.32 2 2 C1.67 2.66 1.34 3.32 1 4 C1.66 4 2.32 4 3 4 C3.433125 4.78375 3.86625 5.5675 4.3125 6.375 C6.29124442 9.45304688 7.6273092 9.84618473 11 11 C11.33 11.66 11.66 12.32 12 13 C14.02463255 13.65213292 14.02463255 13.65213292 16 14 C16.33 15.32 16.66 16.64 17 18 C12.49190629 16.49165286 8.97629282 13.99717626 5.25 11.125 C4.66089844 10.69058594 4.07179687 10.25617188 3.46484375 9.80859375 C1.09770296 7.99650666 -0.74907855 6.54237636 -2.015625 3.8046875 C-2 2 -2 2 0 0 Z " fill="#DBBA4E" transform="translate(166,338)"/>
<path d="M0 0 C0.66 0 1.32 0 2 0 C2.29390625 0.91265625 2.29390625 0.91265625 2.59375 1.84375 C5.59649882 10.64491035 9.73991523 18.75901078 14 27 C13.34 27.66 12.68 28.32 12 29 C10.55015333 26.04756844 9.11754077 23.08706895 7.6875 20.125 C7.28337891 19.30257813 6.87925781 18.48015625 6.46289062 17.6328125 C3.70100808 11.88450411 1.65245866 6.15834321 0 0 Z " fill="#D8B752" transform="translate(129,286)"/>
<path d="M0 0 C0.66 0.66 1.32 1.32 2 2 C1.78679287 4.71839093 1.42316303 7.30961485 1 10 C0.64145415 12.66617926 0.28741277 15.33269898 -0.0625 18 C-0.24043255 19.33339384 -0.41878468 20.6667318 -0.59765625 22 C-0.79681641 23.485 -0.79681641 23.485 -1 25 C-1.99 25 -2.98 25 -4 25 C-3.71505863 22.33246372 -3.42222725 19.66617278 -3.125 17 C-3.04636719 16.25621094 -2.96773437 15.51242188 -2.88671875 14.74609375 C-2.31465792 9.68555567 -1.32985265 4.91710223 0 0 Z " fill="#292929" transform="translate(55,203)"/>
<path d="M0 0 C0.33 0.99 0.66 1.98 1 3 C-6.72888819 4.95403042 -14.05042008 5.22428282 -22 5 C-21.67 4.34 -21.34 3.68 -21 3 C-19.17407227 2.49755859 -19.17407227 2.49755859 -16.81640625 2.1484375 C-15.97142578 2.01953125 -15.12644531 1.890625 -14.25585938 1.7578125 C-13.36705078 1.63148438 -12.47824219 1.50515625 -11.5625 1.375 C-10.67755859 1.2409375 -9.79261719 1.106875 -8.88085938 0.96875 C-2.3912229 0 -2.3912229 0 0 0 Z " fill="#38260E" transform="translate(281,372)"/>
<path d="M0 0 C0 3.96 0 7.92 0 12 C-1.65 11.67 -3.3 11.34 -5 11 C-4.67 9.02 -4.34 7.04 -4 5 C-4.66 4.67 -5.32 4.34 -6 4 C-6 3.34 -6 2.68 -6 2 C-1.125 0 -1.125 0 0 0 Z " fill="#EEEEEE" transform="translate(108,337)"/>
<path d="M0 0 C4.52398004 8.57074699 4.08217104 16.53831539 3 26 C2.67 26 2.34 26 2 26 C1.46801928 22.23065127 0.95133482 18.45936171 0.4375 14.6875 C0.28603516 13.61564453 0.13457031 12.54378906 -0.02148438 11.43945312 C-0.16005859 10.41142578 -0.29863281 9.38339844 -0.44140625 8.32421875 C-0.57232666 7.37635498 -0.70324707 6.42849121 -0.83813477 5.4519043 C-1 3 -1 3 0 0 Z " fill="#4D3A20" transform="translate(373,214)"/>
<path d="M0 0 C0.66 0.33 1.32 0.66 2 1 C0.06977023 4.27517561 -1.87041981 7.54433968 -3.8125 10.8125 C-4.63331055 12.2056543 -4.63331055 12.2056543 -5.47070312 13.62695312 C-6.00244141 14.51962891 -6.53417969 15.41230469 -7.08203125 16.33203125 C-7.56905518 17.15421143 -8.0560791 17.9763916 -8.55786133 18.82348633 C-9.88551669 20.82721878 -11.23445327 22.38100968 -13 24 C-12.42000086 19.42926053 -10.48814383 15.90817173 -8.1875 12 C-7.84396484 11.39671875 -7.50042969 10.7934375 -7.14648438 10.171875 C-5.03235602 6.52272288 -2.71653855 3.22321878 0 0 Z " fill="#191919" transform="translate(85,137)"/>
<path d="M0 0 C2.9318011 3.47210281 4.6165772 7.33102509 6.3125 11.5 C6.60189453 12.16386719 6.89128906 12.82773438 7.18945312 13.51171875 C9.19432528 18.42341044 9.19432528 18.42341044 8.16796875 21.46875 C7.78253906 21.9740625 7.39710938 22.479375 7 23 C6.04027826 20.45884998 5.08218506 17.91710543 4.125 15.375 C3.85558594 14.66214844 3.58617187 13.94929687 3.30859375 13.21484375 C1.7865816 9.16851878 0.33627828 5.11262344 -1 1 C-0.67 0.67 -0.34 0.34 0 0 Z " fill="#1E1E1E" transform="translate(430,164)"/>
<path d="M0 0 C0.99 0.33 1.98 0.66 3 1 C3 1.33 3 1.66 3 2 C3.33 2.66 3.66 3.32 4 4 C3.44140625 5.9453125 3.44140625 5.9453125 2.5625 8.125 C2.27503906 8.84945313 1.98757813 9.57390625 1.69140625 10.3203125 C1.46324219 10.87460937 1.23507812 11.42890625 1 12 C-0.65 12 -2.3 12 -4 12 C-2.68 8.04 -1.36 4.08 0 0 Z " fill="#EFECE8" transform="translate(371,291)"/>
<path d="M0 0 C0.33 0 0.66 0 1 0 C1.53466228 2.68539415 2.05294683 5.37232628 2.5625 8.0625 C2.71396484 8.81466797 2.86542969 9.56683594 3.02148438 10.34179688 C3.93204475 15.2334119 3.9794845 19.1155508 3 24 C2.67 24 2.34 24 2 24 C1.46351828 21.5024806 0.94570449 19.0032955 0.4375 16.5 C0.28603516 15.80390625 0.13457031 15.1078125 -0.02148438 14.390625 C-1.03803063 9.28425311 -0.87324306 5.13536317 0 0 Z " fill="#2B2B2B" transform="translate(53,274)"/>
<path d="M0 0 C4.00004493 0.53759146 5.81138662 2.46828634 8.5625 5.3125 C9.70912109 6.48232422 9.70912109 6.48232422 10.87890625 7.67578125 C14.67337258 11.83362188 14.67337258 11.83362188 16 14 C15.67 14.99 15.34 15.98 15 17 C12.68374133 14.5451846 10.37264795 12.08556574 8.0625 9.625 C7.40314453 8.92632812 6.74378906 8.22765625 6.06445312 7.5078125 C5.43603516 6.8375 4.80761719 6.1671875 4.16015625 5.4765625 C3.57886963 4.85861816 2.99758301 4.24067383 2.39868164 3.60400391 C1 2 1 2 0 0 Z " fill="#261407" transform="translate(334,155)"/>
<path d="M0 0 C5.70985379 3.65119902 10.94464135 7.48244546 16 12 C15.34 12.66 14.68 13.32 14 14 C12.89326166 13.23286356 11.78972306 12.46110997 10.6875 11.6875 C10.07261719 11.25824219 9.45773437 10.82898438 8.82421875 10.38671875 C7 9 7 9 5.53125 7.4375 C3.72391445 5.74081765 2.14624123 5.11591911 -0.1875 4.3125 C-0.90292969 4.06113281 -1.61835938 3.80976563 -2.35546875 3.55078125 C-2.89816406 3.36902344 -3.44085938 3.18726563 -4 3 C-3.34 2.67 -2.68 2.34 -2 2 C-1.34 2.33 -0.68 2.66 0 3 C0 2.01 0 1.02 0 0 Z " fill="#D7B850" transform="translate(320,145)"/>
<path d="M0 0 C1.98 0 3.96 0 6 0 C2.0412992 5.23570106 -2.51960679 9.3607605 -8 13 C-8.66 13 -9.32 13 -10 13 C-9.34 11.68 -8.68 10.36 -8 9 C-7.01 9 -6.02 9 -5 9 C-5 8.34 -5 7.68 -5 7 C-4.01 6.34 -3.02 5.68 -2 5 C-0.79549696 2.44816596 -0.79549696 2.44816596 0 0 Z " fill="#D8B542" transform="translate(333,339)"/>
<path d="M0 0 C3.34292611 3.1019945 5.76244801 6.43575362 8.25 10.25 C8.95640625 11.32765625 9.6628125 12.4053125 10.390625 13.515625 C10.92171875 14.33546875 11.4528125 15.1553125 12 16 C11.01 16.66 10.02 17.32 9 18 C8.60167969 17.32453125 8.20335937 16.6490625 7.79296875 15.953125 C7.26316406 15.06109375 6.73335938 14.1690625 6.1875 13.25 C5.66542969 12.36828125 5.14335937 11.4865625 4.60546875 10.578125 C3.08391935 8.01208831 3.08391935 8.01208831 1.30078125 5.921875 C0 4 0 4 0 0 Z " fill="#392A17" transform="translate(350,170)"/>
<path d="M0 0 C0.33 0.66 0.66 1.32 1 2 C1.99 2.33 2.98 2.66 4 3 C3.154375 3.7425 2.30875 4.485 1.4375 5.25 C0.2309375 6.61125 0.2309375 6.61125 -1 8 C-0.95502158 10.27523089 -0.95502158 10.27523089 0 12 C-0.99 12.33 -1.98 12.66 -3 13 C-3 11.68 -3 10.36 -3 9 C-3.66 9 -4.32 9 -5 9 C-4.67 7.68 -4.34 6.36 -4 5 C-3.01 5 -2.02 5 -1 5 C-1.99 4.34 -2.98 3.68 -4 3 C-4 2.34 -4 1.68 -4 1 C-2.68 0.67 -1.36 0.34 0 0 Z " fill="#F0F0F0" transform="translate(102,137)"/>
<path d="M0 0 C0.99 0.33 1.98 0.66 3 1 C3 3.31 3 5.62 3 8 C4.65 6.35 6.3 4.7 8 3 C8.99 3.33 9.98 3.66 11 4 C9.576875 5.299375 9.576875 5.299375 8.125 6.625 C5.22795407 9.49471531 3.95685867 11.98119358 3 16 C2.34 16 1.68 16 1 16 C1.01740234 15.02160156 1.01740234 15.02160156 1.03515625 14.0234375 C1.08470994 9.2238086 0.99413751 4.72215315 0 0 Z " fill="#262626" transform="translate(201,405)"/>
<path d="M0 0 C6.23364533 4.90733781 11.35709582 10.55678603 16 17 C16 17.66 16 18.32 16 19 C14.125 18.8125 14.125 18.8125 12 18 C11.29289322 16.35008418 10.63437344 14.6792238 10 13 C7.71115308 9.75746686 5.32553006 7.21702004 2 5 C2 4.34 2 3.68 2 3 C1.34 3 0.68 3 0 3 C0 2.01 0 1.02 0 0 Z " fill="#DCBB53" transform="translate(336,158)"/>
<path d="M0 0 C-0.47859241 1.60433809 -0.95789558 3.20846416 -1.4375 4.8125 C-1.70433594 5.70582031 -1.97117187 6.59914063 -2.24609375 7.51953125 C-2.80387873 9.35473055 -3.39344575 11.18033726 -4 13 C-3.34 13.33 -2.68 13.66 -2 14 C-2.99 14 -3.98 14 -5 14 C-5 13.01 -5 12.02 -5 11 C-5.66 10.67 -6.32 10.34 -7 10 C-6.67 9.01 -6.34 8.02 -6 7 C-6.66 6.67 -7.32 6.34 -8 6 C-6.98565881 3.46414701 -6.34981128 2.21863205 -4 0.75 C-2 0 -2 0 0 0 Z " fill="#E5E5E5" transform="translate(292,95)"/>
<path d="M0 0 C0.99 0.103125 1.98 0.20625 3 0.3125 C3.66 1.3025 4.32 2.2925 5 3.3125 C1.66666667 4.97916667 -1.66666667 6.64583333 -5 8.3125 C-5.125 5.4375 -5.125 5.4375 -5 2.3125 C-3 0.3125 -3 0.3125 0 0 Z " fill="#F5F5F5" transform="translate(249,413.6875)"/>
<path d="M0 0 C0.99 0.33 1.98 0.66 3 1 C3 1.66 3 2.32 3 3 C3.99 3.33 4.98 3.66 6 4 C6 4.66 6 5.32 6 6 C7.2065625 6.185625 7.2065625 6.185625 8.4375 6.375 C9.7059375 6.684375 9.7059375 6.684375 11 7 C11.33 7.66 11.66 8.32 12 9 C9.03 8.505 9.03 8.505 6 8 C5.319375 8.99 5.319375 8.99 4.625 10 C4.08875 10.66 3.5525 11.32 3 12 C2.34 12 1.68 12 1 12 C0.875 9.625 0.875 9.625 1 7 C1.66 6.34 2.32 5.68 3 5 C2.34 4.34 1.68 3.68 1 3 C0.67 2.01 0.34 1.02 0 0 Z " fill="#E8E8E8" transform="translate(203,401)"/>
<path d="M0 0 C0.43570313 0.37511719 0.87140625 0.75023438 1.3203125 1.13671875 C5.18607599 4.45859777 9.07657648 7.74642927 13 11 C11 11.66666667 9 12.33333333 7 13 C5.82786955 11.21190303 4.66244474 9.41940875 3.5 7.625 C2.8503125 6.62726563 2.200625 5.62953125 1.53125 4.6015625 C0 2 0 2 0 0 Z " fill="#DBDBDB" transform="translate(127,125)"/>
<path d="M0 0 C0 0.66 0 1.32 0 2 C-0.99 2.495 -0.99 2.495 -2 3 C-0.43358249 7.30764815 1.68336156 11.06171464 4 15 C-0.20763224 13.4972742 -1.8027758 10.76667005 -4 7 C-4 6.34 -4 5.68 -4 5 C-5.65 5.66 -7.3 6.32 -9 7 C-7.68534669 3.05604006 -4.38536841 0 0 0 Z " fill="#282828" transform="translate(346,381)"/>
<path d="M0 0 C-3.28245615 2.81468599 -6.43833482 3.96291853 -10.5625 5.1875 C-11.69816406 5.53167969 -12.83382813 5.87585938 -14.00390625 6.23046875 C-17 7 -17 7 -20 7 C-20 6.34 -20 5.68 -20 5 C-17.60712296 4.1572257 -15.21128981 3.32562998 -12.8125 2.5 C-11.80219727 2.14228516 -11.80219727 2.14228516 -10.77148438 1.77734375 C-7.06795533 0.51272408 -3.92059464 -0.30451221 0 0 Z " fill="#2A180A" transform="translate(301,367)"/>
<path d="M0 0 C5.00600922 0.54681024 8.97181067 2.24140333 13.375 4.5625 C14.01566406 4.89185547 14.65632813 5.22121094 15.31640625 5.56054688 C16.88138632 6.36639482 18.44124021 7.18218493 20 8 C20 8.66 20 9.32 20 10 C15.26210835 8.55676531 11.01141849 6.62773267 6.625 4.375 C5.66400391 3.88773437 5.66400391 3.88773437 4.68359375 3.390625 C3.12052499 2.59742593 1.55999378 1.79922969 0 1 C0 0.67 0 0.34 0 0 Z " fill="#1F1F1F" transform="translate(328,67)"/>
<path d="M0 0 C3.3 1.65 6.6 3.3 10 5 C10 5.33 10 5.66 10 6 C8.20841511 6.02696365 6.41671527 6.04637917 4.625 6.0625 C3.62726563 6.07410156 2.62953125 6.08570313 1.6015625 6.09765625 C-1 6 -1 6 -3 5 C-1.125 1.125 -1.125 1.125 0 0 Z " fill="#ECECEC" transform="translate(390,331)"/>
<path d="M0 0 C1.65 0 3.3 0 5 0 C4.48223379 4.10447392 2.35372556 5.95699523 -0.5625 8.75 C-1.80193359 9.94882812 -1.80193359 9.94882812 -3.06640625 11.171875 C-3.70449219 11.77515625 -4.34257813 12.3784375 -5 13 C-5.33 12.01 -5.66 11.02 -6 10 C-4.17547474 6.92711536 -1.92050279 5.01413986 1 3 C0.67 2.01 0.34 1.02 0 0 Z " fill="#292929" transform="translate(98,318)"/>
<path d="M0 0 C0.9384375 0.09925781 1.876875 0.19851562 2.84375 0.30078125 C7.67948718 1.00480769 7.67948718 1.00480769 9.5 1.6875 C9.83 2.6775 10.16 3.6675 10.5 4.6875 C3.9 3.6975 -2.7 2.7075 -9.5 1.6875 C-5.37472169 -0.37513916 -4.34659861 -0.49556001 0 0 Z " fill="#313131" transform="translate(282.5,52.3125)"/>
<path d="M0 0 C2.625 -0.1875 2.625 -0.1875 5 0 C5.33 1.32 5.66 2.64 6 4 C3.03312999 5.64826111 0.34373475 6.44271087 -3 7 C-2.38722388 4.03824877 -1.74627478 2.61941217 0 0 Z " fill="#F7F7F7" transform="translate(214,80)"/>
<path d="M0 0 C0.66 0.33 1.32 0.66 2 1 C0.56760415 2.79574993 -0.8711004 4.58646907 -2.3125 6.375 C-3.51326172 7.87160156 -3.51326172 7.87160156 -4.73828125 9.3984375 C-7 12 -7 12 -10 14 C-10 13.01 -10 12.02 -10 11 C-9.34 11 -8.68 11 -8 11 C-7.979375 10.29875 -7.95875 9.5975 -7.9375 8.875 C-6.55020791 4.6206376 -3.48375828 2.64692861 0 0 Z " fill="#D5B44B" transform="translate(349,325)"/>
<path d="M0 0 C0.66 0.66 1.32 1.32 2 2 C-0.31 7.28 -2.62 12.56 -5 18 C-5.66 17.67 -6.32 17.34 -7 17 C-5.1668733 11.00067626 -2.92678249 5.55079437 0 0 Z " fill="#282828" transform="translate(71,160)"/>
<path d="M0 0 C0 0.33 0 0.66 0 1 C-5.61 1.99 -11.22 2.98 -17 4 C-17.33 3.01 -17.66 2.02 -18 1 C-11.59233959 -0.83292414 -6.58723293 -1.04559253 0 0 Z " fill="#422F1A" transform="translate(236,124)"/>
<path d="M0 0 C2.50037734 2.17424117 3.43628586 3.73045798 4 7 C3.01 7.495 3.01 7.495 2 8 C2 8.99 2 9.98 2 11 C-1.39914975 9.86695008 -2.05254451 8.87481525 -4 6 C-3.67 5.34 -3.34 4.68 -3 4 C-2.34 4 -1.68 4 -1 4 C-0.67 2.68 -0.34 1.36 0 0 Z " fill="#EEEEEE" transform="translate(252,93)"/>
<path d="M0 0 C0.33 0.99 0.66 1.98 1 3 C-3.26041226 6.76354036 -7.51848911 10.49881962 -12 14 C-11.43899078 10.20893773 -9.84675862 8.4970605 -7.125 5.875 C-6.42632812 5.19179687 -5.72765625 4.50859375 -5.0078125 3.8046875 C-3 2 -3 2 0 0 Z " fill="#26170A" transform="translate(168,151)"/>
<path d="M0 0 C3.96 0 7.92 0 12 0 C12 1.98 12 3.96 12 6 C8.04 4.35 4.08 2.7 0 1 C0 0.67 0 0.34 0 0 Z " fill="#EBE8E4" transform="translate(299,131)"/>
<path d="M0 0 C4.85110358 4.41009417 8.348107 9.58004353 12 15 C11.01 15 10.02 15 9 15 C7.29013111 13.09522378 5.80454264 11.25065944 4.3125 9.1875 C3.68891602 8.36668945 3.68891602 8.36668945 3.05273438 7.52929688 C0 3.39381927 0 3.39381927 0 0 Z " fill="#191919" transform="translate(83,358)"/>
<path d="M0 0 C2.85984547 2.51632049 4.41468822 5.33885553 6.1875 8.6875 C6.71730469 9.68136719 7.24710938 10.67523438 7.79296875 11.69921875 C8.19128906 12.45847656 8.58960937 13.21773438 9 14 C8.34 14.66 7.68 15.32 7 16 C5.63597957 13.7136988 4.28365726 11.42178251 2.9375 9.125 C2.54755859 8.47402344 2.15761719 7.82304687 1.75585938 7.15234375 C0.77555467 5.46934275 -0.11898432 3.73703801 -1 2 C-0.67 1.34 -0.34 0.68 0 0 Z " fill="#292929" transform="translate(75,344)"/>
<path d="M0 0 C1.32 0.33 2.64 0.66 4 1 C4 5.38968456 1.87194899 6.76905739 -1 10 C-2.1875 8.375 -2.1875 8.375 -3 6 C-1.625 2.75 -1.625 2.75 0 0 Z " fill="#EDEDE9" transform="translate(148,164)"/>
<path d="M0 0 C1.155 0.185625 2.31 0.37125 3.5 0.5625 C4.325 0.706875 5.15 0.85125 6 1 C2.70880274 3.19413151 2.24874522 3.2045464 -1.44921875 2.7578125 C-2.29677734 2.66113281 -3.14433594 2.56445312 -4.01757812 2.46484375 C-5.33918945 2.29662109 -5.33918945 2.29662109 -6.6875 2.125 C-7.58017578 2.02058594 -8.47285156 1.91617188 -9.39257812 1.80859375 C-11.59648849 1.54931018 -13.79856669 1.27941634 -16 1 C-16 0.67 -16 0.34 -16 0 C-10.28238416 -0.91890255 -5.71546069 -0.9218485 0 0 Z " fill="#442D13" transform="translate(276,124)"/>
<path d="M0 0 C2.96052484 3.36423277 3.92289822 6.69159287 5 11 C3.68103535 10.07161713 2.37001311 9.13194268 1.0625 8.1875 C0.33160156 7.66542969 -0.39929688 7.14335938 -1.15234375 6.60546875 C-3 5 -3 5 -4 2 C-2.68 2 -1.36 2 0 2 C0 1.34 0 0.68 0 0 Z " fill="#E0E0E0" transform="translate(189,95)"/>
<path d="M0 0 C0.99 0.33 1.98 0.66 3 1 C2.01 6.61 1.02 12.22 0 18 C-2.32867177 14.50699235 -2.14192599 13.59758378 -1.6875 9.5625 C-1.58824219 8.61503906 -1.48898438 7.66757813 -1.38671875 6.69140625 C-1.05710402 4.39742089 -0.61704715 2.23086277 0 0 Z " fill="#3F2C16" transform="translate(125,218)"/>
<path d="M0 0 C0.66 0.33 1.32 0.66 2 1 C1.360625 1.5775 0.72125 2.155 0.0625 2.75 C-2.0231966 5.02530538 -2.50825657 6.0495394 -3 9 C-3.33 9.66 -3.66 10.32 -4 11 C-4.99 11 -5.98 11 -7 11 C-7 11.66 -7 12.32 -7 13 C-7.99 12.67 -8.98 12.34 -10 12 C-8.70984254 10.37380152 -7.41782303 8.74908017 -6.125 7.125 C-5.04605469 5.76761719 -5.04605469 5.76761719 -3.9453125 4.3828125 C-2 2 -2 2 0 0 Z " fill="#DBBA52" transform="translate(155,167)"/>
<path d="M0 0 C1.34173403 0.92543709 2.67320159 1.86577405 4 2.8125 C5.11375 3.59560547 5.11375 3.59560547 6.25 4.39453125 C6.8275 4.92433594 7.405 5.45414062 8 6 C8 6.99 8 7.98 8 9 C6.02 9.99 6.02 9.99 4 11 C3.32880451 9.5437455 2.66318193 8.08492133 2 6.625 C1.62875 5.81289062 1.2575 5.00078125 0.875 4.1640625 C0 2 0 2 0 0 Z " fill="#E5E5E5" transform="translate(171,96)"/>
<path d="M0 0 C2.04119788 1.61594832 4.04072937 3.2856382 6 5 C6 5.66 6 6.32 6 7 C6.94875 7.28875 7.8975 7.5775 8.875 7.875 C12 9 12 9 14 11 C13.01 11.33 12.02 11.66 11 12 C8.8037049 10.59166619 6.83930111 9.18346343 4.8125 7.5625 C3.97428711 6.9118457 3.97428711 6.9118457 3.11914062 6.24804688 C1.73891168 5.17453547 0.36849461 4.0884306 -1 3 C-0.67 2.01 -0.34 1.02 0 0 Z " fill="#DEDEDE" transform="translate(127,402)"/>
<path d="M0 0 C2.625 0.9375 2.625 0.9375 5 2 C4.34 3.98 3.68 5.96 3 8 C1.0625 7.3125 1.0625 7.3125 -1 6 C-1.75 3.375 -1.75 3.375 -2 1 C-1.34 0.67 -0.68 0.34 0 0 Z " fill="#EDEDED" transform="translate(137,136)"/>
<path d="M0 0 C0.33 0.99 0.66 1.98 1 3 C-2.3 6.3 -5.6 9.6 -9 13 C-9.66 12.34 -10.32 11.68 -11 11 C-7.37 7.37 -3.74 3.74 0 0 Z " fill="#272727" transform="translate(118,99)"/>
<path d="M0 0 C6.19518473 0.41588046 11.26689311 1.60251894 17 4 C17 4.33 17 4.66 17 5 C10.69732561 4.63223832 5.66748157 3.83374078 0 1 C0 0.67 0 0.34 0 0 Z " fill="#161616" transform="translate(292,55)"/>
<path d="M0 0 C2.74277578 3.19990508 4.6302836 6.00499382 6 10 C2.27566618 8.7874262 -1.37802806 7.49140021 -5 6 C-1.25 4.875 -1.25 4.875 1 6 C1 5.34 1 4.68 1 4 C0.34 4 -0.32 4 -1 4 C-0.67 2.68 -0.34 1.36 0 0 Z " fill="#E6E6E6" transform="translate(126,137)"/>
<path d="M0 0 C3.875 1.75 3.875 1.75 5 4 C4.34 4 3.68 4 3 4 C3 4.66 3 5.32 3 6 C2.01 6.33 1.02 6.66 0 7 C-0.99 6.34 -1.98 5.68 -3 5 C-3 4.01 -3 3.02 -3 2 C-2.01 1.34 -1.02 0.68 0 0 Z " fill="#EFEFEF" transform="translate(179,104)"/>
<path d="M0 0 C2.97 0.495 2.97 0.495 6 1 C6 1.66 6 2.32 6 3 C4.03125 4.5078125 4.03125 4.5078125 1.5 6.125 C0.6646875 6.66382812 -0.170625 7.20265625 -1.03125 7.7578125 C-1.6809375 8.16773437 -2.330625 8.57765625 -3 9 C-2.01 6.03 -1.02 3.06 0 0 Z " fill="#EBEBEB" transform="translate(299,98)"/>
<path d="M0 0 C2 3 2 3 1.75 6 C1 9 1 9 -1 12 C-2.32 11.67 -3.64 11.34 -5 11 C-4.34 11 -3.68 11 -3 11 C-2.87625 9.741875 -2.7525 8.48375 -2.625 7.1875 C-2.30131941 3.89674737 -1.93395001 2.90092502 0 0 Z " fill="#ECECEC" transform="translate(317,84)"/>
<path d="M0 0 C1.25425781 0.10183594 2.50851563 0.20367187 3.80078125 0.30859375 C5.22970703 0.43427734 5.22970703 0.43427734 6.6875 0.5625 C6.6875 0.8925 6.6875 1.2225 6.6875 1.5625 C2.44198144 2.65837955 -1.2717839 2.49115836 -5.625 2.125 C-6.87925781 2.02316406 -8.13351563 1.92132813 -9.42578125 1.81640625 C-10.37839844 1.73261719 -11.33101562 1.64882813 -12.3125 1.5625 C-12.3125 1.2325 -12.3125 0.9025 -12.3125 0.5625 C-8.06698144 -0.53337955 -4.3532161 -0.36615836 0 0 Z " fill="#404040" transform="translate(229.3125,446.4375)"/>
<path d="M0 0 C0.33 0.99 0.66 1.98 1 3 C-0.7624772 3.89171173 -2.53533791 4.76292656 -4.3125 5.625 C-5.79169922 6.35589844 -5.79169922 6.35589844 -7.30078125 7.1015625 C-8.19152344 7.39804687 -9.08226562 7.69453125 -10 8 C-10.99 7.34 -11.98 6.68 -13 6 C-8.71 4.02 -4.42 2.04 0 0 Z " fill="#362512" transform="translate(311,360)"/>
<path d="M0 0 C4.66861981 1.60483806 9.09258167 3.97490194 13 7 C13 7.66 13 8.32 13 9 C11.02 9 9.04 9 7 9 C7.33 8.34 7.66 7.68 8 7 C7.4225 6.66226562 6.845 6.32453125 6.25 5.9765625 C5.13625 5.30753906 5.13625 5.30753906 4 4.625 C3.2575 4.18414062 2.515 3.74328125 1.75 3.2890625 C1.1725 2.86367188 0.595 2.43828125 0 2 C0 1.34 0 0.68 0 0 Z " fill="#222222" transform="translate(390,329)"/>
<path d="M0 0 C0.33 0.66 0.66 1.32 1 2 C-0.07408957 4.60474038 -1.20045633 7.09966038 -2.4375 9.625 C-2.77587891 10.33140625 -3.11425781 11.0378125 -3.46289062 11.765625 C-4.30154879 13.51381384 -5.14987847 15.25735686 -6 17 C-7.09658936 13.71023192 -6.79953138 12.28696233 -6 9 C-5.34 9 -4.68 9 -4 9 C-3.71125 7.88625 -3.4225 6.7725 -3.125 5.625 C-2 2 -2 2 0 0 Z " fill="#D9B952" transform="translate(366,296)"/>
<path d="M0 0 C3.78806451 0.60636284 6.82895704 1.71161456 10.25 3.4375 C11.12140625 3.86933594 11.9928125 4.30117188 12.890625 4.74609375 C15 6 15 6 16 8 C11.85701333 7.40165275 8.81805623 5.99335715 5.1875 3.9375 C4.21167969 3.38964844 3.23585937 2.84179688 2.23046875 2.27734375 C1.49441406 1.85582031 0.75835937 1.43429687 0 1 C0 0.67 0 0.34 0 0 Z " fill="#131313" transform="translate(153,424)"/>
<path d="M0 0 C0.99 0.33 1.98 0.66 3 1 C0.03 4.63 -2.94 8.26 -6 12 C-6.66 11.34 -7.32 10.68 -8 10 C-5.36 6.7 -2.72 3.4 0 0 Z " fill="#262626" transform="translate(407,370)"/>
<path d="M0 0 C3.3 0.99 6.6 1.98 10 3 C10 3.66 10 4.32 10 5 C12.64 5.66 15.28 6.32 18 7 C17.67 7.66 17.34 8.32 17 9 C10.83643195 7.3341708 5.51740344 4.12194714 0 1 C0 0.67 0 0.34 0 0 Z " fill="#D0B14F" transform="translate(184,357)"/>
<path d="M0 0 C0.66 0 1.32 0 2 0 C2 1.98 2 3.96 2 6 C3.32 6 4.64 6 6 6 C6.66 5.01 7.32 4.02 8 3 C8.042721 4.66611905 8.04063832 6.33382885 8 8 C7 9 7 9 4.625 9.3125 C2 9 2 9 0.125 7.3125 C-1.27861489 4.42729162 -0.92054342 3.01268757 0 0 Z " fill="#242424" transform="translate(102,342)"/>
<path d="M0 0 C3.96 0 7.92 0 12 0 C10.35 1.65 8.7 3.3 7 5 C3.535 3.02 3.535 3.02 0 1 C0 0.67 0 0.34 0 0 Z " fill="#EBEBEB" transform="translate(389,339)"/>
<path d="M0 0 C0.66 0.66 1.32 1.32 2 2 C1.60495559 4.9628331 0.40182371 7.38326241 -1 10 C-3 7 -3 7 -4 5 C-4.66 5 -5.32 5 -6 5 C-5.67 4.34 -5.34 3.68 -5 3 C-3.68 3 -2.36 3 -1 3 C-0.67 2.01 -0.34 1.02 0 0 Z " fill="#E7E7E7" transform="translate(92,322)"/>
<path d="M0 0 C2.8125 0.875 2.8125 0.875 6 3 C7.42572199 6.24312584 8.26033343 9.54173439 9 13 C5.7385585 9.97151861 3.42563756 6.71931092 1 3 C0.34 2.34 -0.32 1.68 -1 1 C-0.67 0.67 -0.34 0.34 0 0 Z " fill="#F1C436" transform="translate(143,313)"/>
<path d="M0 0 C4.92127034 -0.16682272 8.50343896 -0.24828052 13 2 C12.34 2.66 11.68 3.32 11 4 C8.3984375 3.9765625 8.3984375 3.9765625 5.375 3.625 C4.37210937 3.51414063 3.36921875 3.40328125 2.3359375 3.2890625 C1.17964844 3.14597656 1.17964844 3.14597656 0 3 C0 2.01 0 1.02 0 0 Z " fill="#E3BF48" transform="translate(280,129)"/>
<path d="M0 0 C0.66 0 1.32 0 2 0 C0.52278578 3.45201639 -1.43794001 5.64961936 -4.125 8.25 C-4.84945313 8.95640625 -5.57390625 9.6628125 -6.3203125 10.390625 C-6.87460937 10.92171875 -7.42890625 11.4528125 -8 12 C-8 8.24111186 -7.049166 7.58681685 -4.5625 4.875 C-3.92441406 4.17117188 -3.28632813 3.46734375 -2.62890625 2.7421875 C-1.76410115 1.81724008 -0.89538137 0.89538137 0 0 Z " fill="#1A1A1A" transform="translate(398,381)"/>
<path d="M0 0 C1.1484375 1.671875 1.1484375 1.671875 2 4 C1.1015625 6.578125 1.1015625 6.578125 -0.375 9.25 C-1.09816406 10.58804687 -1.09816406 10.58804687 -1.8359375 11.953125 C-2.22007812 12.62859375 -2.60421875 13.3040625 -3 14 C-3.66 13.67 -4.32 13.34 -5 13 C-3.58192622 8.52761347 -1.88695626 4.28853694 0 0 Z " fill="#3A2714" transform="translate(366,298)"/>
<path d="M0 0 C0.33 0.66 0.66 1.32 1 2 C1.66 2.268125 2.32 2.53625 3 2.8125 C5 4 5 4 5.75 6.625 C5.8325 7.40875 5.915 8.1925 6 9 C3.625 8.375 3.625 8.375 1 7 C-0.3125 3.875 -0.3125 3.875 -1 1 C-0.67 0.67 -0.34 0.34 0 0 Z " fill="#E4E4E4" transform="translate(86,264)"/>
<path d="M0 0 C0.99 0 1.98 0 3 0 C2.67 2.31 2.34 4.62 2 7 C-1 7 -1 7 -3 6 C-3 5.01 -3 4.02 -3 3 C-2.34 3 -1.68 3 -1 3 C-0.67 2.01 -0.34 1.02 0 0 Z " fill="#DADADA" transform="translate(343,113)"/>
<path d="M0 0 C0 0.66 0 1.32 0 2 C-5.52967941 2.71033431 -10.49983036 3.30267176 -16 2 C-16 1.67 -16 1.34 -16 1 C-10.59255982 0.22750855 -5.46137814 -0.09752461 0 0 Z " fill="#3E3E3E" transform="translate(240,50)"/>
<path d="M0 0 C1.305239 3.91571701 0.32239848 5.03892997 -1.4375 8.6875 C-1.91058594 9.68136719 -2.38367188 10.67523438 -2.87109375 11.69921875 C-3.42990234 12.83810547 -3.42990234 12.83810547 -4 14 C-4.66 14 -5.32 14 -6 14 C-6 12.68 -6 11.36 -6 10 C-5.34 10 -4.68 10 -4 10 C-3.79503906 9.36191406 -3.59007812 8.72382813 -3.37890625 8.06640625 C-3.10949219 7.24011719 -2.84007812 6.41382813 -2.5625 5.5625 C-2.29566406 4.73878906 -2.02882812 3.91507812 -1.75390625 3.06640625 C-1 1 -1 1 0 0 Z " fill="#1E1E1E" transform="translate(187,400)"/>
<path d="M0 0 C3.387199 1.4388102 5.3594104 3.22119499 7.75 6 C8.67039062 7.051875 8.67039062 7.051875 9.609375 8.125 C11 10 11 10 11 12 C7.612801 10.5611898 5.6405896 8.77880501 3.25 6 C2.63640625 5.29875 2.0228125 4.5975 1.390625 3.875 C0 2 0 2 0 0 Z " fill="#272727" transform="translate(356,371)"/>
<path d="M0 0 C0.66 0.33 1.32 0.66 2 1 C1.67 2.32 1.34 3.64 1 5 C0.34 5 -0.32 5 -1 5 C-1 6.32 -1 7.64 -1 9 C-0.34 9 0.32 9 1 9 C0.25 10.9375 0.25 10.9375 -1 13 C-3.125 13.75 -3.125 13.75 -5 14 C-4.34 13.01 -3.68 12.02 -3 11 C-2.66073053 8.66752239 -2.32759934 6.33414529 -2 4 C-0.9375 1.5625 -0.9375 1.5625 0 0 Z " fill="#DEDEDE" transform="translate(387,354)"/>
<path d="M0 0 C0.66 0.66 1.32 1.32 2 2 C0.38050958 3.50594681 -1.24575974 5.00460668 -2.875 6.5 C-4.23238281 7.75296875 -4.23238281 7.75296875 -5.6171875 9.03125 C-8 11 -8 11 -10 11 C-8.55218207 7.55571735 -6.72305391 5.63869038 -3.875 3.25 C-3.15054688 2.63640625 -2.42609375 2.0228125 -1.6796875 1.390625 C-0.84824219 0.70226562 -0.84824219 0.70226562 0 0 Z " fill="#242424" transform="translate(126,355)"/>
<path d="M0 0 C3.04049801 3.64859761 4.96518762 7.7444533 7 12 C6.34 12.66 5.68 13.32 5 14 C3.96958487 12.04669132 2.9509107 10.08718472 1.9375 8.125 C1.08478516 6.48917969 1.08478516 6.48917969 0.21484375 4.8203125 C-0.18605469 3.88960938 -0.58695313 2.95890625 -1 2 C-0.67 1.34 -0.34 0.68 0 0 Z " fill="#392515" transform="translate(136,305)"/>
<path d="M0 0 C1.98 0 3.96 0 6 0 C4.95125002 2.62187494 4.35068687 3.79371361 1.875 5.25 C1.25625 5.4975 0.6375 5.745 0 6 C-0.99 5.34 -1.98 4.68 -3 4 C-2.01 3.67 -1.02 3.34 0 3 C0 2.01 0 1.02 0 0 Z " fill="#F2F2E7" transform="translate(272,118)"/>
<path d="M0 0 C3.3 0.99 6.6 1.98 10 3 C9 5 9 5 8 6 C5.11274535 6.30392154 3.57791516 6.41849029 1.1875 4.6875 C0 3 0 3 0 0 Z " fill="#ECE8E2" transform="translate(205,370)"/>
<path d="M0 0 C3.465 1.485 3.465 1.485 7 3 C7 3.66 7 4.32 7 5 C3.71303767 5.79953138 2.28976808 6.09658936 -1 5 C-0.67 3.35 -0.34 1.7 0 0 Z " fill="#EEEDEB" transform="translate(187,362)"/>
<path d="M0 0 C0.66 0 1.32 0 2 0 C2 0.66 2 1.32 2 2 C2.66 2 3.32 2 4 2 C3.34 4.31 2.68 6.62 2 9 C0.68 7.68 -0.64 6.36 -2 5 C-1.34 3.35 -0.68 1.7 0 0 Z " fill="#EFEEEB" transform="translate(355,169)"/>
<path d="M0 0 C-1.60149886 0.67305018 -3.20631029 1.33822227 -4.8125 2 C-6.15248047 2.556875 -6.15248047 2.556875 -7.51953125 3.125 C-10 4 -10 4 -13 4 C-12.67 3.01 -12.34 2.02 -12 1 C-10.29296875 0.234375 -10.29296875 0.234375 -8.1875 -0.25 C-7.50042969 -0.42015625 -6.81335938 -0.5903125 -6.10546875 -0.765625 C-3.80500179 -1.02170666 -2.19370273 -0.69015367 0 0 Z " fill="#2B1B0D" transform="translate(220,127)"/>
<path d="M0 0 C0.66 0.99 1.32 1.98 2 3 C2.99 3.66 3.98 4.32 5 5 C4.01 5.495 4.01 5.495 3 6 C2.01 5.67 1.02 5.34 0 5 C0 6.32 0 7.64 0 9 C-0.66 8.67 -1.32 8.34 -2 8 C-2.34342449 6.66923011 -2.67619874 5.33568021 -3 4 C-3.66 3.34 -4.32 2.68 -5 2 C-3.35 1.34 -1.7 0.68 0 0 Z " fill="#D6D6D6" transform="translate(172,118)"/>
<path d="M0 0 C1.32 0.66 2.64 1.32 4 2 C3.625 4.4375 3.625 4.4375 3 7 C2.01 7.495 2.01 7.495 1 8 C1 7.34 1 6.68 1 6 C0.34 6 -0.32 6 -1 6 C-1.33 5.01 -1.66 4.02 -2 3 C-1.34 2.01 -0.68 1.02 0 0 Z " fill="#EDEDED" transform="translate(305,73)"/>
<path d="M0 0 C0.66 0.33 1.32 0.66 2 1 C2 1.66 2 2.32 2 3 C1.34 3 0.68 3 0 3 C0.33 3.99 0.66 4.98 1 6 C-0.65 6.33 -2.3 6.66 -4 7 C-4 5.35 -4 3.7 -4 2 C-2.125 0.9375 -2.125 0.9375 0 0 Z " fill="#E7E7E7" transform="translate(304,411)"/>
<path d="M0 0 C2 0.8125 2 0.8125 3.25 2.875 C3.4975 3.514375 3.745 4.15375 4 4.8125 C3.4225 4.93625 2.845 5.06 2.25 5.1875 C-0.02335767 5.81898824 -1.9253529 6.70108191 -4 7.8125 C-3.67 6.8225 -3.34 5.8325 -3 4.8125 C-2.34 4.8125 -1.68 4.8125 -1 4.8125 C-1.99 3.4925 -2.98 2.1725 -4 0.8125 C-2 -0.1875 -2 -0.1875 0 0 Z " fill="#ECECEC" transform="translate(347,378.1875)"/>
<path d="M0 0 C1.65 0.33 3.3 0.66 5 1 C4.01 3.64 3.02 6.28 2 9 C0.68 8.01 -0.64 7.02 -2 6 C-1 4 -1 4 2 3 C1.34 2.67 0.68 2.34 0 2 C0 1.34 0 0.68 0 0 Z " fill="#EAEAEA" transform="translate(426,329)"/>
<path d="M0 0 C0.66 0.33 1.32 0.66 2 1 C1.67 1.66 1.34 2.32 1 3 C-2.0625 3.625 -2.0625 3.625 -5 4 C-5 4.66 -5 5.32 -5 6 C-6.98 6 -8.96 6 -11 6 C-7.57874946 3.12614955 -4.16111563 1.54115394 0 0 Z " fill="#CFB050" transform="translate(204,132)"/>
<path d="M0 0 C0.66 0.33 1.32 0.66 2 1 C-2.55426184 3.66590937 -5.73946963 4.31563182 -11 4 C-11 3.34 -11 2.68 -11 2 C-10.06027344 1.90912109 -10.06027344 1.90912109 -9.1015625 1.81640625 C-7.87566406 1.69072266 -7.87566406 1.69072266 -6.625 1.5625 C-5.81289062 1.48128906 -5.00078125 1.40007812 -4.1640625 1.31640625 C-1.95727195 1.10909886 -1.95727195 1.10909886 0 0 Z " fill="#E4C048" transform="translate(218,129)"/>
<path d="M0 0 C1.42944945 2.35438733 2.08661261 3.48032433 1.625 6.25 C1.41875 6.8275 1.2125 7.405 1 8 C0.34 8 -0.32 8 -1 8 C-2.625 5.5 -2.625 5.5 -4 3 C-2.68 2.01 -1.36 1.02 0 0 Z " fill="#131313" transform="translate(140,106)"/>
<path d="M0 0 C5.28137429 0.51525603 8.57221156 2.25477117 13 5 C12.01 5.66 11.02 6.32 10 7 C8.33073546 6.02526874 6.66464358 5.04510211 5 4.0625 C4.071875 3.51722656 3.14375 2.97195313 2.1875 2.41015625 C1.465625 1.94480469 0.74375 1.47945313 0 1 C0 0.67 0 0.34 0 0 Z " fill="#242424" transform="translate(142,418)"/>
<path d="M0 0 C0.66 0.66 1.32 1.32 2 2 C4.19704511 2.67651207 4.19704511 2.67651207 6.625 3.125 C7.85089844 3.37636719 7.85089844 3.37636719 9.1015625 3.6328125 C9.72804688 3.75398438 10.35453125 3.87515625 11 4 C10.67 4.66 10.34 5.32 10 6 C3.539801 6.36567164 3.539801 6.36567164 1.0625 4.6875 C0 3 0 3 0 0 Z " fill="#E7E7E7" transform="translate(372,360)"/>
<path d="M0 0 C6.24675325 6.07792208 6.24675325 6.07792208 8 9 C7.67 9.99 7.34 10.98 7 12 C5.82455195 10.56967163 4.65989738 9.13046758 3.5 7.6875 C2.8503125 6.88699219 2.200625 6.08648437 1.53125 5.26171875 C0 3 0 3 0 0 Z " fill="#2B1705" transform="translate(142,317)"/>
<path d="M0 0 C2.74792483 3.40219265 6 7.48464588 6 12 C3 11 3 11 1.3125 7.6875 C0 4 0 4 0 0 Z " fill="#D7B753" transform="translate(361,191)"/>
<path d="M0 0 C0.33 0.99 0.66 1.98 1 3 C-0.21484375 5.04296875 -0.21484375 5.04296875 -1.9375 7.1875 C-2.50339844 7.90292969 -3.06929687 8.61835938 -3.65234375 9.35546875 C-4.09707031 9.89816406 -4.54179687 10.44085938 -5 11 C-5.66 10.67 -6.32 10.34 -7 10 C-5.33248852 6.05860922 -2.77289351 3.2107188 0 0 Z " fill="#362513" transform="translate(155,163)"/>
<path d="M0 0 C0.99 0.99 1.98 1.98 3 3 C0.03 5.475 0.03 5.475 -3 8 C-3.66 7.34 -4.32 6.68 -5 6 C-5 5.01 -5 4.02 -5 3 C-3.68 3 -2.36 3 -1 3 C-0.67 2.01 -0.34 1.02 0 0 Z " fill="#ECECEC" transform="translate(358,138)"/>
<path d="M0 0 C0.99 0.33 1.98 0.66 3 1 C3.33 0.67 3.66 0.34 4 0 C4.33 0.99 4.66 1.98 5 3 C4.01 3.495 4.01 3.495 3 4 C2.34 3.67 1.68 3.34 1 3 C1 3.66 1 4.32 1 5 C1.66 5.33 2.32 5.66 3 6 C1.35 6.33 -0.3 6.66 -2 7 C-1.67 6.01 -1.34 5.02 -1 4 C-1 3.01 -1 2.02 -1 1 C-0.67 0.67 -0.34 0.34 0 0 Z " fill="#EFF0EC" transform="translate(345,336)"/>
<path d="M0 0 C-1.49097658 3.7952131 -3.75700849 5.61042731 -7 8 C-6.125 4.125 -6.125 4.125 -5 3 C-5.66 2.34 -6.32 1.68 -7 1 C-4.50935112 0.31292445 -2.62113708 0 0 0 Z " fill="#F1EEEA" transform="translate(164,153)"/>
<path d="M0 0 C9.59453303 2.89066059 9.59453303 2.89066059 13 6 C12.01 6.495 12.01 6.495 11 7 C9.1875 6.1875 9.1875 6.1875 7 5 C6.13375 4.690625 5.2675 4.38125 4.375 4.0625 C2 3 2 3 0 0 Z " fill="#D7D7D7" transform="translate(110,145)"/>
<path d="M0 0 C1.60781893 0.7631861 3.21113138 1.53587058 4.8125 2.3125 C5.70582031 2.74175781 6.59914063 3.17101562 7.51953125 3.61328125 C9.78931933 4.88221789 11.29248171 6.06556898 13 8 C8.00786149 7.53198701 3.87036007 5.08284263 0 2 C0 1.34 0 0.68 0 0 Z " fill="#D8B952" transform="translate(306,137)"/>
<path d="M0 0 C0.66 0.66 1.32 1.32 2 2 C1.34 2 0.68 2 0 2 C0 1.34 0 0.68 0 0 Z M-4 2 C-1.625 2.25 -1.625 2.25 1 3 C2.3125 5.0625 2.3125 5.0625 3 7 C-1.75 7.125 -1.75 7.125 -4 6 C-4 4.68 -4 3.36 -4 2 Z " fill="#F9F9F9" transform="translate(279,85)"/>
<path d="M0 0 C4.71403788 0.47939368 8.66579301 0.96834048 13 3 C13 3.33 13 3.66 13 4 C11.58249437 3.88490339 10.16598831 3.75746342 8.75 3.625 C7.96109375 3.55539062 7.1721875 3.48578125 6.359375 3.4140625 C3.914123 2.98492887 2.15163097 2.21399362 0 1 C0 0.67 0 0.34 0 0 Z " fill="#171717" transform="translate(188,439)"/>
<path d="M0 0 C-0.75 1.9375 -0.75 1.9375 -2 4 C-4.125 4.75 -4.125 4.75 -6 5 C-6 4.34 -6 3.68 -6 3 C-8.31 3 -10.62 3 -13 3 C-13 2.67 -13 2.34 -13 2 C-11.39658445 1.66307215 -9.79223445 1.33058907 -8.1875 1 C-7.29417969 0.814375 -6.40085937 0.62875 -5.48046875 0.4375 C-3 0 -3 0 0 0 Z " fill="#E6E0D7" transform="translate(279,375)"/>
<path d="M0 0 C1.32 0 2.64 0 4 0 C4 1.98 4 3.96 4 6 C3.34 5.67 2.68 5.34 2 5 C1.34 6.32 0.68 7.64 0 9 C0 6.03 0 3.06 0 0 Z " fill="#DFDFDF" transform="translate(110,340)"/>
<path d="M0 0 C0.33 0 0.66 0 1 0 C2.33257403 11.52164009 2.33257403 11.52164009 1 17 C0.67 17 0.34 17 0 17 C-0.19644384 15.10507254 -0.38177288 13.20899097 -0.5625 11.3125 C-0.66691406 10.25675781 -0.77132813 9.20101562 -0.87890625 8.11328125 C-0.99277552 5.18573914 -0.70848415 2.82868856 0 0 Z " fill="#414141" transform="translate(446,211)"/>
<path d="M0 0 C2.52349243 3.12432397 4.27256146 6.38060496 6 10 C4.1875 9.8125 4.1875 9.8125 2 9 C0.1875 6.6875 0.1875 6.6875 -1 4 C-0.6875 1.6875 -0.6875 1.6875 0 0 Z " fill="#E2E2E2" transform="translate(419,147)"/>
<path d="M0 0 C1.625 2.5 1.625 2.5 3 5 C2.071875 4.773125 1.14375 4.54625 0.1875 4.3125 C-2.96826848 3.63680017 -2.96826848 3.63680017 -4.875 5.4375 C-5.24625 5.953125 -5.6175 6.46875 -6 7 C-6.66 6.67 -7.32 6.34 -8 6 C-7.0479279 4.99403703 -6.08812654 3.99538437 -5.125 3 C-4.59132813 2.443125 -4.05765625 1.88625 -3.5078125 1.3125 C-2 0 -2 0 0 0 Z " fill="#D6D6D6" transform="translate(381,133)"/>
<path d="M0 0 C1.4589426 0.47730838 2.91713496 0.95691042 4.375 1.4375 C5.18710937 1.70433594 5.99921875 1.97117188 6.8359375 2.24609375 C9 3 9 3 11 4 C11 4.66 11 5.32 11 6 C3.375 4.25 3.375 4.25 0 2 C0 1.34 0 0.68 0 0 Z " fill="#DABA50" transform="translate(294,132)"/>
<path d="M0 0 C-3.19990508 2.74277578 -6.00499382 4.6302836 -10 6 C-10 5.01 -10 4.02 -10 3 C-3.375 -1.125 -3.375 -1.125 0 0 Z " fill="#262626" transform="translate(355,420)"/>
<path d="M0 0 C0 1.98 0 3.96 0 6 C-1.32 6.33 -2.64 6.66 -4 7 C-4 6.34 -4 5.68 -4 5 C-4.66 4.67 -5.32 4.34 -6 4 C-6 3.34 -6 2.68 -6 2 C-1.125 0 -1.125 0 0 0 Z " fill="#E4E4E4" transform="translate(108,337)"/>
<path d="M0 0 C0.99 0.99 1.98 1.98 3 3 C2.34 4.32 1.68 5.64 1 7 C-0.32 6.67 -1.64 6.34 -3 6 C-2.01 4.02 -1.02 2.04 0 0 Z " fill="#EBE8E5" transform="translate(362,312)"/>
<path d="M0 0 C1.21386936 3.64160808 0.6674695 4.33165469 -0.9375 7.6875 C-1.31777344 8.49574219 -1.69804687 9.30398438 -2.08984375 10.13671875 C-2.39019531 10.75160156 -2.69054687 11.36648438 -3 12 C-3.88336837 9.5332355 -4.1312406 8.36140628 -3.22265625 5.859375 C-2.83980469 5.16328125 -2.45695312 4.4671875 -2.0625 3.75 C-1.68222656 3.04359375 -1.30195313 2.3371875 -0.91015625 1.609375 C-0.60980469 1.07828125 -0.30945313 0.5471875 0 0 Z " fill="#291708" transform="translate(371,288)"/>
<path d="M0 0 C0.33 0 0.66 0 1 0 C2.33257403 10.55808656 2.33257403 10.55808656 1 15 C0.67 15 0.34 15 0 15 C-0.19601608 13.25093341 -0.38147403 11.50068154 -0.5625 9.75 C-0.66691406 8.77546875 -0.77132812 7.8009375 -0.87890625 6.796875 C-0.98974468 4.2368648 -0.77738092 2.41851841 0 0 Z " fill="#3B3B3B" transform="translate(53,274)"/>
<path d="M0 0 C1.53690745 2.41040161 2.09752136 3.50082285 1.5390625 6.359375 C1.23742188 7.14828125 0.93578125 7.9371875 0.625 8.75 C0.32851563 9.54921875 0.03203125 10.3484375 -0.2734375 11.171875 C-0.51320312 11.77515625 -0.75296875 12.3784375 -1 13 C-1.33 13 -1.66 13 -2 13 C-1.85851011 11.3954444 -1.71164314 9.79136233 -1.5625 8.1875 C-1.48128906 7.29417969 -1.40007813 6.40085938 -1.31640625 5.48046875 C-1 3 -1 3 0 0 Z " fill="#202020" transform="translate(58,192)"/>
<path d="M0 0 C0.66 0.99 1.32 1.98 2 3 C1.19185349 4.33597652 0.37836819 5.668725 -0.4375 7 C-1.11619141 8.11375 -1.11619141 8.11375 -1.80859375 9.25 C-2.20175781 9.8275 -2.59492188 10.405 -3 11 C-3.33 11 -3.66 11 -4 11 C-3.74438677 8.6568787 -3.40729228 6.32156597 -3 4 C-2.34 3.67 -1.68 3.34 -1 3 C-0.67 2.01 -0.34 1.02 0 0 Z " fill="#E8E5E1" transform="translate(141,177)"/>
<path d="M0 0 C0.66 0.99 1.32 1.98 2 3 C0.68 4.65 -0.64 6.3 -2 8 C-3.32 7.67 -4.64 7.34 -6 7 C-4.02 4.69 -2.04 2.38 0 0 Z " fill="#E7E7E7" transform="translate(141,149)"/>
<path d="M0 0 C0.33 0.66 0.66 1.32 1 2 C1.99 2.33 2.98 2.66 4 3 C2.68 3.99 1.36 4.98 0 6 C-2 4.625 -2 4.625 -4 3 C-4 2.34 -4 1.68 -4 1 C-2.68 0.67 -1.36 0.34 0 0 Z " fill="#E8E8E8" transform="translate(102,137)"/>
<path d="M0 0 C3.465 1.98 3.465 1.98 7 4 C6.34 4.66 5.68 5.32 5 6 C1.875 5.625 1.875 5.625 -1 5 C-0.67 3.35 -0.34 1.7 0 0 Z " fill="#ECECEC" transform="translate(353,81)"/>
<path d="M0 0 C0 0.33 0 0.66 0 1 C-1.78871178 1.38885039 -3.58112874 1.76069196 -5.375 2.125 C-6.37273437 2.33382812 -7.37046875 2.54265625 -8.3984375 2.7578125 C-9.25695312 2.83773437 -10.11546875 2.91765625 -11 3 C-11.66 2.34 -12.32 1.68 -13 1 C-8.23947038 -0.97387813 -5.03511899 -1.0070238 0 0 Z " fill="#313131" transform="translate(205,57)"/>
<path d="M0 0 C-0.99 0.66 -1.98 1.32 -3 2 C-5.71313291 4.46648446 -7.55203712 6.62141995 -9 10 C-9.32523926 6.42236811 -9.42956587 4.60457419 -7.3125 1.625 C-4.61209763 -0.27258004 -3.22939919 -0.35882213 0 0 Z " fill="#1A1A1A" transform="translate(251,412)"/>
<path d="M0 0 C2.475 0.495 2.475 0.495 5 1 C4.67 2.32 4.34 3.64 4 5 C2.68 5 1.36 5 0 5 C0 3.35 0 1.7 0 0 Z " fill="#F1F1F1" transform="translate(324,403)"/>
<path d="M0 0 C0 3 0 3 -1.4609375 4.60546875 C-2.09257812 5.12753906 -2.72421875 5.64960938 -3.375 6.1875 C-4.00148438 6.71730469 -4.62796875 7.24710937 -5.2734375 7.79296875 C-7 9 -7 9 -9 9 C-8.34 7.68 -7.68 6.36 -7 5 C-6.01 5 -5.02 5 -4 5 C-4 4.34 -4 3.68 -4 3 C-2 1.375 -2 1.375 0 0 Z " fill="#DAB958" transform="translate(332,343)"/>
<path d="M0 0 C2 1 2 1 3.125 3.1875 C4.08328236 6.26769331 4.14915816 8.79309948 4 12 C1.49484216 9.49484216 0.94900914 7.38931835 0 4 C0 2.68 0 1.36 0 0 Z " fill="#2A170E" transform="translate(369,205)"/>
<path d="M0 0 C1.12894876 0.93274109 2.25300876 1.87140122 3.375 2.8125 C4.00148438 3.33457031 4.62796875 3.85664063 5.2734375 4.39453125 C7 6 7 6 9 9 C6 9 6 9 3.8125 7.125 C2 5 2 5 2 3 C1.34 3 0.68 3 0 3 C0 2.01 0 1.02 0 0 Z " fill="#CDAE54" transform="translate(336,158)"/>
<path d="M0 0 C3 3.75 3 3.75 3 6 C2.01 6.33 1.02 6.66 0 7 C-0.99 5.68 -1.98 4.36 -3 3 C-2.01 2.01 -1.02 1.02 0 0 Z " fill="#E5E5E5" transform="translate(163,98)"/>
<path d="M0 0 C0.99 0 1.98 0 3 0 C2.25 6.75 2.25 6.75 0 9 C-1.125 3.375 -1.125 3.375 0 0 Z " fill="#E7E7E7" transform="translate(182,401)"/>
<path d="M0 0 C1.32 0 2.64 0 4 0 C4 0.66 4 1.32 4 2 C4.66 2.33 5.32 2.66 6 3 C4.68 3.99 3.36 4.98 2 6 C1.01 5.01 0.02 4.02 -1 3 C-0.67 2.01 -0.34 1.02 0 0 Z " fill="#E9E9E9" transform="translate(394,377)"/>
<path d="M0 0 C0.66 0.66 1.32 1.32 2 2 C1.67 2.66 1.34 3.32 1 4 C1.66 4 2.32 4 3 4 C2.67 5.32 2.34 6.64 2 8 C-1 6 -1 6 -1.8125 4 C-1.874375 3.34 -1.93625 2.68 -2 2 C-1.34 1.34 -0.68 0.68 0 0 Z " fill="#E1BE41" transform="translate(166,338)"/>
<path d="M0 0 C0.66 0.66 1.32 1.32 2 2 C1.96712417 4.72869407 1.43602229 7.2966618 1 10 C0.67 8.68 0.34 7.36 0 6 C-0.66 6 -1.32 6 -2 6 C-1.34 4.02 -0.68 2.04 0 0 Z " fill="#ECC53F" transform="translate(131,280)"/>
<path d="M0 0 C3.99455527 0.61454696 6.74466336 2.70646737 10 5 C9.67 5.66 9.34 6.32 9 7 C7.4972763 6.02501855 5.99788037 5.04490611 4.5 4.0625 C3.6646875 3.51722656 2.829375 2.97195313 1.96875 2.41015625 C1.3190625 1.94480469 0.669375 1.47945313 0 1 C0 0.67 0 0.34 0 0 Z " fill="#212121" transform="translate(388,340)"/>
<path d="M0 0 C0.66 0.33 1.32 0.66 2 1 C0.02 3.97 -1.96 6.94 -4 10 C-4.33 9.01 -4.66 8.02 -5 7 C-4.00390625 5.17578125 -4.00390625 5.17578125 -2.5625 3.3125 C-2.08941406 2.68988281 -1.61632812 2.06726563 -1.12890625 1.42578125 C-0.75636719 0.95527344 -0.38382812 0.48476563 0 0 Z " fill="#D5B752" transform="translate(356,315)"/>
<path d="M0 0 C1.99097846 2.98646769 2.94124926 5.59687262 4 9 C3.01 8.67 2.02 8.34 1 8 C1 7.34 1 6.68 1 6 C0.34 6 -0.32 6 -1 6 C-0.67 4.02 -0.34 2.04 0 0 Z " fill="#EAE5DE" transform="translate(129,294)"/>
<path d="M0 0 C1.64826111 2.96687001 2.44271087 5.65626525 3 9 C1.68 9 0.36 9 -1 9 C-1.09765625 2.84765625 -1.09765625 2.84765625 -1 1 C-0.67 0.67 -0.34 0.34 0 0 Z " fill="#E5E0DD" transform="translate(125,281)"/>
<path d="M0 0 C0.66 0.99 1.32 1.98 2 3 C1.01 4.98 0.02 6.96 -1 9 C-1.99 8.67 -2.98 8.34 -4 8 C-2.68 5.36 -1.36 2.72 0 0 Z " fill="#392819" transform="translate(138,186)"/>
<path d="M0 0 C0.99 0.33 1.98 0.66 3 1 C2.67 2.32 2.34 3.64 2 5 C2.66 5.33 3.32 5.66 4 6 C3.01 6.33 2.02 6.66 1 7 C0.01 5.68 -0.98 4.36 -2 3 C-1.34 2.01 -0.68 1.02 0 0 Z " fill="#E5E5E5" transform="translate(131,113)"/>
<path d="M0 0 C2.3125 0.1875 2.3125 0.1875 5 1 C6.8125 3.5625 6.8125 3.5625 8 6 C5 6 5 6 3.61328125 4.6875 C2.40885417 3.125 1.20442708 1.5625 0 0 Z " fill="#2A2A2A" transform="translate(388,108)"/>
<path d="M0 0 C0.66 0.33 1.32 0.66 2 1 C0.75453595 4.73639216 -0.63404953 5.18756513 -4 7 C-4.66 6.34 -5.32 5.68 -6 5 C-4.02 3.35 -2.04 1.7 0 0 Z " fill="#E7E7E7" transform="translate(374,406)"/>
<path d="M0 0 C0.99 0.33 1.98 0.66 3 1 C2.6875 2.9375 2.6875 2.9375 2 5 C1.01 5.33 0.02 5.66 -1 6 C-1.042721 4.33388095 -1.04063832 2.66617115 -1 1 C-0.67 0.67 -0.34 0.34 0 0 Z " fill="#DCDCDC" transform="translate(205,407)"/>
<path d="M0 0 C4.95 0.99 4.95 0.99 10 2 C5.64467851 4.17766075 4.53374042 4.03039555 0 3 C0 2.01 0 1.02 0 0 Z " fill="#413016" transform="translate(215,371)"/>
<path d="M0 0 C3.4375 0.8125 3.4375 0.8125 7 2 C7.33 2.99 7.66 3.98 8 5 C4.5625 4.1875 4.5625 4.1875 1 3 C0.67 2.01 0.34 1.02 0 0 Z " fill="#EBC33F" transform="translate(182,354)"/>
<path d="M0 0 C0.66 0.33 1.32 0.66 2 1 C0.38405168 3.04119788 -1.2856382 5.04072937 -3 7 C-3.66 7 -4.32 7 -5 7 C-3.75023244 3.34683329 -3.32901247 2.21934164 0 0 Z " fill="#DCBD54" transform="translate(349,325)"/>
<path d="M0 0 C3.29148243 1.13499394 3.9959869 1.99283376 5.75 5.125 C6.1625 6.07375 6.575 7.0225 7 8 C3.70851757 6.86500606 3.0040131 6.00716624 1.25 2.875 C0.8375 1.92625 0.425 0.9775 0 0 Z " fill="#E0BC51" transform="translate(142,315)"/>
<path d="M0 0 C0.99 0 1.98 0 3 0 C2.67 1.98 2.34 3.96 2 6 C0.68 6 -0.64 6 -2 6 C-1.34 4.02 -0.68 2.04 0 0 Z " fill="#E9E9E9" transform="translate(413,260)"/>
<path d="M0 0 C0.95904856 3.83619425 0.91892116 5.32431536 0 9 C-0.99 9 -1.98 9 -3 9 C-2.01 6.03 -1.02 3.06 0 0 Z " fill="#D1B252" transform="translate(131,208)"/>
<path d="M0 0 C0 1.32 0 2.64 0 4 C-0.99 4.33 -1.98 4.66 -3 5 C-3 4.34 -3 3.68 -3 3 C-3.66 3 -4.32 3 -5 3 C-5.33 2.01 -5.66 1.02 -6 0 C-3.50907189 -1.24546405 -2.58919267 -0.7767578 0 0 Z " fill="#EFEFE6" transform="translate(377,208)"/>
<path d="M0 0 C0.99 0 1.98 0 3 0 C3 0.99 3 1.98 3 3 C3.66 3.33 4.32 3.66 5 4 C4.67 4.99 4.34 5.98 4 7 C3.34 7 2.68 7 2 7 C0.5393715 4.35261084 0 3.10551666 0 0 Z " fill="#ECEBEC" transform="translate(362,185)"/>
<path d="M0 0 C4.31392226 0.4793247 6.16569547 1.7457985 9 5 C4.68607774 4.5206753 2.83430453 3.2542015 0 0 Z " fill="#25190A" transform="translate(315,141)"/>
<path d="M0 0 C0.99 0 1.98 0 3 0 C2.835 0.598125 2.67 1.19625 2.5 1.8125 C1.8885876 4.11344336 1.8885876 4.11344336 2 7 C0.68 5.68 -0.64 4.36 -2 3 C-1.34 2.01 -0.68 1.02 0 0 Z " fill="#E0E0E0" transform="translate(153,104)"/>
<path d="M0 0 C-2.62198774 2.15377564 -4.64404172 3.40072174 -8 4 C-8.33 3.34 -8.66 2.68 -9 2 C-3.375 -1.125 -3.375 -1.125 0 0 Z " fill="#2F2F2F" transform="translate(175,66)"/>
<path d="M0 0 C1.98 0 3.96 0 6 0 C3.60490662 2.89932357 1.68754757 3.50168276 -2 4 C-1.34 2.68 -0.68 1.36 0 0 Z " fill="#EFEFEF" transform="translate(246,414)"/>
<path d="M0 0 C3.24208567 0.35049575 4.61527704 0.56221181 6.8125 3.0625 C7.204375 3.701875 7.59625 4.34125 8 5 C5 5 5 5 2.3125 2.5 C1.549375 1.675 0.78625 0.85 0 0 Z " fill="#2B2B2B" transform="translate(119,401)"/>
<path d="M0 0 C0.66 1.98 1.32 3.96 2 6 C1.01 6 0.02 6 -1 6 C-1 5.34 -1 4.68 -1 4 C-1.99 3.67 -2.98 3.34 -4 3 C-4 2.34 -4 1.68 -4 1 C-2 0 -2 0 0 0 Z " fill="#D7D7D7" transform="translate(157,396)"/>
<path d="M0 0 C0.66 0 1.32 0 2 0 C1.67 1.98 1.34 3.96 1 6 C-0.32 5.34 -1.64 4.68 -3 4 C-1.625 2 -1.625 2 0 0 Z " fill="#E1E1E1" transform="translate(157,389)"/>
<path d="M0 0 C3.26954202 0.56371414 4.82575883 1.49962266 7 4 C6.67 4.99 6.34 5.98 6 7 C1.125 2.25 1.125 2.25 0 0 Z " fill="#282828" transform="translate(93,374)"/>
<path d="M0 0 C1.98 0 3.96 0 6 0 C4.35 1.65 2.7 3.3 1 5 C0.67 3.35 0.34 1.7 0 0 Z " fill="#E8E8E8" transform="translate(94,320)"/>
<path d="M0 0 C1.9955516 3.99110319 2.19546065 5.69986566 2 10 C1.01 10 0.02 10 -1 10 C-0.67 6.7 -0.34 3.4 0 0 Z " fill="#484848" transform="translate(52,218)"/>
<path d="M0 0 C0.66 0 1.32 0 2 0 C2.66 2.31 3.32 4.62 4 7 C3.34 7.66 2.68 8.32 2 9 C1.34 6.03 0.68 3.06 0 0 Z " fill="#3B2719" transform="translate(366,198)"/>
<path d="M0 0 C1.95418308 2.93127462 2.64700993 4.55834679 3 8 C2.34 8.66 1.68 9.32 1 10 C0.63883954 8.5225254 0.28624952 7.04295325 -0.0625 5.5625 C-0.25972656 4.73878906 -0.45695312 3.91507813 -0.66015625 3.06640625 C-0.82837891 2.04353516 -0.82837891 2.04353516 -1 1 C-0.67 0.67 -0.34 0.34 0 0 Z " fill="#2A2A2A" transform="translate(436,177)"/>
<path d="M0 0 C2 2 2 2 2 5 C2.66 5 3.32 5 4 5 C3.67 6.32 3.34 7.64 3 9 C1.35 6.69 -0.3 4.38 -2 2 C-1.34 2 -0.68 2 0 2 C0 1.34 0 0.68 0 0 Z " fill="#EBE9E6" transform="translate(349,164)"/>
<path d="M0 0 C0.66 0.66 1.32 1.32 2 2 C2.66 1.34 3.32 0.68 4 0 C4.99 1.32 5.98 2.64 7 4 C5.02 4.33 3.04 4.66 1 5 C0.34 3.68 -0.32 2.36 -1 1 C-0.67 0.67 -0.34 0.34 0 0 Z " fill="#D3D3D3" transform="translate(133,133)"/>
<path d="M0 0 C2.99332739 0.9977758 3.94766315 1.7522025 6 4 C4.02 4.33 2.04 4.66 0 5 C0 3.35 0 1.7 0 0 Z " fill="#E9E3E3" transform="translate(212,122)"/>
<path d="M0 0 C1.32 1.32 2.64 2.64 4 4 C2.68 5.32 1.36 6.64 0 8 C-0.79953138 4.71303767 -1.09658936 3.28976808 0 0 Z " fill="#D4D4D4" transform="translate(318,112)"/>
<path d="M0 0 C0.33 0.99 0.66 1.98 1 3 C-1.31 4.32 -3.62 5.64 -6 7 C-6 6.01 -6 5.02 -6 4 C-3 1.8125 -3 1.8125 0 0 Z " fill="#2D2D2D" transform="translate(142,81)"/>
<path d="M0 0 C3.34373475 0.55728913 6.03312999 1.35173889 9 3 C9 3.66 9 4.32 9 5 C5.22454612 3.90931332 2.52956528 3.0916909 0 0 Z " fill="#171717" transform="translate(339,72)"/>
<path d="M0 0 C2.97 0.495 2.97 0.495 6 1 C4.68 1.33 3.36 1.66 2 2 C2 2.66 2 3.32 2 4 C0.35 4 -1.3 4 -3 4 C-2.34 3.67 -1.68 3.34 -1 3 C-0.67 2.01 -0.34 1.02 0 0 Z " fill="#E8E8E8" transform="translate(293,57)"/>
<path d="M0 0 C-0.66 0.66 -1.32 1.32 -2 2 C-4.72869407 1.96712417 -7.2966618 1.43602229 -10 1 C-6.1496895 -1.56687367 -4.41430237 -0.83288724 0 0 Z " fill="#3A3A3A" transform="translate(208,443)"/>
<path d="M0 0 C2.9375 0.8125 2.9375 0.8125 6 2 C6.33 2.99 6.66 3.98 7 5 C1.25 3.25 1.25 3.25 -1 1 C-0.67 0.67 -0.34 0.34 0 0 Z " fill="#DEDEDE" transform="translate(159,424)"/>
<path d="M0 0 C0.66 0 1.32 0 2 0 C2.625 3.375 2.625 3.375 3 7 C2.34 7.66 1.68 8.32 1 9 C0.67 6.03 0.34 3.06 0 0 Z " fill="#353535" transform="translate(270,411)"/>
<path d="M0 0 C2.64 0 5.28 0 8 0 C8.66 1.32 9.32 2.64 10 4 C6.7 3.01 3.4 2.02 0 1 C0 0.67 0 0.34 0 0 Z " fill="#353535" transform="translate(321,401)"/>
<path d="M0 0 C0.66 0.33 1.32 0.66 2 1 C3.67654729 0.72057545 5.34608154 0.39171753 7 0 C4.6875 2.5 4.6875 2.5 2 5 C1.01 5 0.02 5 -1 5 C-0.67 3.35 -0.34 1.7 0 0 Z " fill="#E3E3E3" transform="translate(147,394)"/>
<path d="M0 0 C0.7425 0.61875 1.485 1.2375 2.25 1.875 C4.48801188 3.60437281 6.43739987 4.86106661 9 6 C2.25 5.25 2.25 5.25 0 3 C0 2.01 0 1.02 0 0 Z " fill="#171717" transform="translate(371,362)"/>
<path d="M0 0 C1.32 1.32 2.64 2.64 4 4 C3.34 4.66 2.68 5.32 2 6 C1.01 5.34 0.02 4.68 -1 4 C-0.67 2.68 -0.34 1.36 0 0 Z " fill="#E8E8E8" transform="translate(418,345)"/>
<path d="M0 0 C0.33 0 0.66 0 1 0 C0.4140625 6.15234375 0.4140625 6.15234375 0 8 C-0.99 8.495 -0.99 8.495 -2 9 C-1.125 1.125 -1.125 1.125 0 0 Z " fill="#1E1E1E" transform="translate(440,306)"/>
<path d="M0 0 C0.99 0.33 1.98 0.66 3 1 C1.60667426 4.36720387 0.0210714 5.9859524 -3 8 C-2.5359375 7.13375 -2.5359375 7.13375 -2.0625 6.25 C-1.07416636 4.15705816 -0.4831387 2.25464725 0 0 Z " fill="#F1C73A" transform="translate(167,155)"/>
<path d="M0 0 C2 1.375 2 1.375 4 3 C4 3.66 4 4.32 4 5 C1.6568787 4.74438677 -0.67843403 4.40729228 -3 4 C-3.33 3.34 -3.66 2.68 -4 2 C-2.68 2.33 -1.36 2.66 0 3 C0 2.01 0 1.02 0 0 Z " fill="#E3C34D" transform="translate(320,145)"/>
<path d="M0 0 C1.32 0.66 2.64 1.32 4 2 C4 3.32 4 4.64 4 6 C1 5 1 5 -1 2 C-0.67 1.34 -0.34 0.68 0 0 Z " fill="#E3E3E3" transform="translate(347,136)"/>
<path d="M0 0 C0.66 0.33 1.32 0.66 2 1 C1.01 1.66 0.02 2.32 -1 3 C-0.67 2.01 -0.34 1.02 0 0 Z M-2 3 C-1.34 3.66 -0.68 4.32 0 5 C-1.65 6.32 -3.3 7.64 -5 9 C-5 6 -5 6 -3.5 4.3125 C-2.7575 3.6628125 -2.7575 3.6628125 -2 3 Z " fill="#181818" transform="translate(107,137)"/>
<path d="M0 0 C1.32 0 2.64 0 4 0 C2.66666667 2.66666667 1.33333333 5.33333333 0 8 C0 5.36 0 2.72 0 0 Z " fill="#D9D9D9" transform="translate(210,80)"/>
</svg>
